# Blender v2.91.2 OBJ File: ''
# www.blender.org
mtllib leaflessTree.mtl
o Arbre_Automne_Cylinder.003
v 0.324451 0.091271 -0.305775
v 0.324451 0.140233 -0.305775
v 0.485745 0.161942 -0.238965
v 0.485745 0.108257 -0.238965
v 0.552555 0.138559 -0.077671
v 0.552555 0.089725 -0.077671
v 0.797253 0.168460 0.395129
v 0.840984 0.210666 0.289553
v 1.172371 0.822167 0.696744
v 1.183231 0.799414 0.740538
v 0.691676 0.210666 0.438861
v 1.152754 0.763419 0.758680
v 0.324451 0.098961 0.150431
v 0.324451 0.173084 0.150431
v 0.163158 0.180345 0.083622
v 0.163158 0.157316 0.083622
v 0.096348 0.113394 -0.077671
v 0.096348 0.038590 -0.077672
v 0.443110 0.786589 -0.194162
v 0.368023 0.892738 -0.160043
v 0.754431 1.661765 -0.113118
v 0.787711 1.649563 -0.127800
v 0.166135 0.101275 -0.217969
v 0.166929 0.158092 -0.212370
v 0.324451 -1.861441 -0.369375
v 0.530716 -1.861441 -0.283937
v 0.616154 -1.861441 -0.077672
v 0.530716 -1.861441 0.128593
v 0.324451 -1.861441 0.214030
v 0.118187 -1.861441 0.128593
v 0.032749 -1.861441 -0.077672
v 0.118187 -1.861441 -0.283937
v 0.820991 1.637362 -0.113118
v 0.740646 1.666819 -0.077671
v 0.754431 1.661765 -0.042225
v 0.787711 1.649563 -0.027542
v 0.820991 1.637362 -0.042225
v 0.834776 1.632308 -0.077671
v 0.336920 0.905420 -0.077671
v 0.368023 0.892738 0.004701
v 0.443110 0.862121 0.038820
v 0.518197 0.831504 0.004701
v 0.549300 0.743291 -0.077671
v 0.518197 0.845349 -0.160043
v 0.412201 0.637461 -0.223236
v 0.312693 0.678722 -0.161125
v 0.274254 0.722988 -0.077671
v 0.314658 0.689781 0.025259
v 0.412201 0.712509 0.067894
v 0.509744 0.651002 0.025259
v 0.550148 0.605440 -0.077671
v 0.830074 0.628703 -0.392381
v 0.799474 0.596336 -0.468532
v 1.096037 1.183988 -0.754346
v 1.104007 1.180314 -0.733112
v 0.725599 0.642235 -0.500075
v 1.076798 1.198486 -0.754764
v 0.324451 -1.534774 -0.305776
v 0.485745 -1.534774 -0.238966
v 0.552555 -1.534774 -0.077672
v 0.485745 -1.534774 0.083621
v 0.324451 -1.534774 0.150430
v 0.163158 -1.534774 0.083621
v 0.096348 -1.534774 -0.077672
v 0.163158 -1.534774 -0.238966
v 0.294839 0.449321 -0.545265
v 0.375828 0.461542 -0.603601
v 0.365340 0.690319 -1.069988
v 0.338387 0.686253 -1.050575
v -0.725983 0.841523 -0.089224
v -0.704497 0.809183 -0.142695
v -1.158021 1.040398 -0.113341
v -1.165313 1.051373 -0.095194
v -0.704497 0.809183 -0.035754
v -1.158021 1.040398 -0.077047
v 0.383781 0.458495 0.094626
v 0.265590 0.503166 0.044161
v 0.485745 0.293748 0.083622
v 0.501971 0.485031 0.044161
v 0.550927 0.478690 -0.077671
v 0.501971 0.426908 -0.199505
v 0.454313 0.412778 -0.570090
v 0.391459 0.674091 -1.058836
v -1.173278 0.984229 -0.119219
v -1.183230 0.977999 -0.095194
v -1.173278 0.984229 -0.071169
v -0.749453 0.643685 -0.018435
v -0.749453 0.643685 -0.160013
v -0.778775 0.625326 -0.089224
v -0.221793 0.959368 0.031652
v -0.229014 0.967340 -0.023228
v -0.326734 1.278653 0.214055
v -0.323919 1.275545 0.235447
v -0.228333 0.900534 0.048359
v -0.326469 1.252612 0.241959
v -0.380604 0.382743 0.028980
v -0.308944 0.636524 0.001374
v -0.492398 0.701053 -0.016443
v -0.551243 0.484424 0.006226
v -0.310053 0.636634 -0.158097
v -0.379495 0.382631 -0.188875
v -0.551243 0.484424 -0.179092
v -0.492398 0.701053 -0.156423
v -0.427342 0.353477 -0.083857
v -0.589623 0.460390 -0.086433
v 0.324451 -0.814924 -0.269233
v 0.324451 -0.094825 -0.305775
v 0.485745 -0.093062 -0.238966
v 0.459905 -0.814924 -0.213126
v 0.552555 -0.093440 -0.077672
v 0.516012 -0.814924 -0.077672
v 0.485745 -0.207916 0.083621
v 0.459905 -0.841999 0.057782
v 0.324451 -0.182516 0.150431
v 0.324451 -0.814924 0.113889
v 0.163158 -0.232799 0.083621
v 0.188997 -0.814924 0.057782
v 0.096348 -0.229266 -0.077672
v 0.132891 -0.830059 -0.077672
v 0.188997 -0.814924 -0.213126
v 0.163158 -0.128320 -0.238966
v 1.125275 0.837893 0.696744
v 1.112718 0.842086 0.696744
v 1.090488 0.830385 0.740539
v 1.110013 0.823865 0.740539
v 1.093101 0.783340 0.758680
v 1.105659 0.779146 0.758680
v 0.691676 0.330357 0.438861
v 0.840984 0.330357 0.289553
v 0.840984 0.362275 0.289553
v 0.797253 0.479872 0.395130
v 0.691676 0.362275 0.438861
v 1.103880 1.202597 -0.718728
v 1.097303 1.214680 -0.730870
v 1.098679 1.248060 -0.705338
v 1.103742 1.226830 -0.703083
v 1.081425 1.219827 -0.735808
v 1.086456 1.243036 -0.715192
v 0.743363 0.750557 -0.483365
v 0.762683 0.868365 -0.465193
v 0.809615 0.892317 -0.443867
v 0.829056 0.841302 -0.392381
v 0.829586 0.730543 -0.392381
v 0.383781 0.500341 -0.249968
v -0.520522 0.743383 -0.086433
v 0.216634 0.555245 -0.077671
v 0.261819 0.481938 -0.162120
v -0.298292 0.688072 -0.083857
v -0.370374 1.289657 0.224859
v -0.377105 1.285650 0.244019
v -0.370374 1.266819 0.249368
v -0.340975 0.936978 0.067368
v -0.358243 0.985291 0.053648
v -0.340975 0.995574 0.004490
v 0.068641 0.092836 0.533040
v 0.009718 0.100916 0.433964
v -0.353351 0.287491 0.832146
v -0.319356 0.283172 0.843919
v -0.072256 0.004354 0.418241
v -0.373831 0.251398 0.829912
v -0.319356 0.244824 0.883909
v -0.353351 0.234341 0.887570
v -0.373831 0.214904 0.867967
v -0.171659 -0.048744 0.534727
v -0.135056 0.023583 0.603618
v -0.035817 0.037037 0.655451
v 0.352229 0.610740 -1.082321
v 0.317418 0.614687 -1.061679
v 0.387873 0.615537 -1.067557
v 0.443538 0.236827 -0.596294
v 0.231827 0.234270 -0.578634
v 0.336430 0.222411 -0.640660
v 0.435369 0.725952 0.569893
v 0.367573 0.710153 0.540260
v 0.420487 0.955078 1.055261
v 0.458539 0.963945 1.071893
v 0.503167 0.683200 0.540260
v 0.496590 0.939950 1.055261
v 0.401345 0.882279 1.062635
v 0.447452 0.864852 1.082322
v 0.493559 0.875204 1.062635
v 0.497765 0.567843 0.553398
v 0.333468 0.580447 0.553398
v 0.415616 0.549398 0.588474
vn 0.3827 0.0000 -0.9239
vn 0.9239 -0.0000 -0.3827
vn 0.9247 0.0012 -0.3806
vn 0.9254 0.0025 -0.3790
vn 0.8714 -0.4901 -0.0214
vn 0.3006 -0.6216 0.7234
vn -0.3827 -0.0000 0.9239
vn -0.9239 -0.0000 0.3827
vn -0.2402 0.1739 -0.9550
vn -0.4937 0.0497 -0.8682
vn -0.8942 0.0244 -0.4469
vn 0.0000 -1.0000 -0.0000
vn 0.3442 0.9389 -0.0000
vn -0.8182 0.4340 -0.3771
vn -0.8182 0.4340 0.3771
vn -0.3268 0.2204 0.9190
vn 0.3796 -0.0888 0.9209
vn 0.8110 -0.2671 0.5204
vn 0.7970 -0.2637 -0.5434
vn 0.4485 -0.1148 -0.8864
vn -0.3670 0.1632 -0.9158
vn -0.8569 0.2563 -0.4473
vn -0.8691 0.2833 0.4055
vn -0.3881 0.2188 0.8953
vn 0.4410 0.0818 0.8938
vn 0.9297 0.0014 0.3684
vn 0.9328 0.0009 0.3605
vn 0.9332 0.0009 0.3594
vn 0.8368 -0.5175 -0.1790
vn 0.0242 -0.4382 -0.8985
vn 0.3766 0.1770 -0.9093
vn 0.9093 0.1770 -0.3766
vn 0.9093 0.1770 0.3766
vn 0.3766 0.1770 0.9093
vn -0.3766 0.1770 0.9093
vn -0.9093 0.1770 0.3766
vn -0.3766 0.1770 -0.9093
vn -0.9093 0.1770 -0.3766
vn 0.1764 0.8853 0.4303
vn 0.4081 0.8445 -0.3468
vn 0.3996 0.8466 0.3515
vn -0.3392 0.2330 0.9114
vn 0.3214 0.1363 0.9371
vn 0.9261 0.0026 0.3772
vn 0.9293 0.0017 0.3693
vn 0.9293 0.0017 0.3694
vn 0.9255 0.0024 -0.3787
vn 0.3509 0.8438 0.4060
vn -0.8874 0.2450 -0.3904
vn -0.8874 0.2450 0.3904
vn -0.0329 0.1129 0.9931
vn -0.0099 0.1067 -0.9942
vn -0.5919 -0.6860 -0.4231
vn -0.5987 -0.6794 0.4242
vn 0.9345 0.3485 -0.0723
vn 0.9057 0.0196 0.4235
vn -0.0560 0.1221 0.9909
vn -0.0520 0.1255 0.9907
vn -0.0565 0.1216 0.9910
vn 0.0185 0.1078 -0.9940
vn -0.4877 -0.7660 -0.4188
vn -0.5070 -0.7598 0.4071
vn 0.3825 -0.0468 -0.9228
vn 0.9228 -0.0467 -0.3823
vn 0.9309 -0.0497 0.3619
vn 0.3741 -0.0532 0.9259
vn -0.3741 -0.0555 0.9257
vn -0.9216 -0.0570 0.3840
vn -0.3776 -0.0479 -0.9247
vn -0.9152 -0.0524 -0.3996
vn 0.2926 0.8763 0.3827
vn 0.1212 0.3630 0.9239
vn -0.4574 -0.1591 0.8749
vn 0.6536 0.2273 -0.7219
vn -0.8028 0.5690 0.1783
vn -0.2438 0.7371 -0.6302
vn 0.7736 -0.6317 -0.0504
vn 0.1283 -0.6776 0.7241
vn -0.6177 -0.0000 0.7864
vn 0.7864 0.0000 -0.6177
vn -0.6045 0.7707 0.2017
vn 0.2342 0.7267 -0.6458
vn 0.9329 0.1958 -0.3023
vn 0.9293 0.2011 -0.3098
vn 0.9331 0.1956 -0.3018
vn 0.3893 0.5553 -0.7349
vn -0.7839 0.2868 -0.5507
vn -0.5606 0.7361 0.3795
vn 0.0203 0.6012 0.7989
vn 0.8160 -0.0625 0.5746
vn 0.5693 -0.8137 0.1171
vn -0.1756 -0.7337 -0.6563
vn -0.6561 0.2495 -0.7122
vn -0.4428 0.8482 -0.2908
vn 0.4515 0.6672 0.5925
vn 0.7470 0.0041 0.6649
vn 0.7470 0.0041 0.6648
vn 0.7469 0.0041 0.6649
vn 0.2101 0.7896 -0.5765
vn 0.1992 0.8906 0.4089
vn -0.0474 0.1295 0.9904
vn 0.0207 0.1330 -0.9909
vn -0.3647 -0.8238 -0.4340
vn -0.3652 -0.8207 0.4393
vn 0.2453 0.9505 0.1905
vn 0.2251 0.2869 0.9311
vn -0.0088 -0.4837 0.8752
vn -0.9229 -0.2457 0.2963
vn -0.9435 0.1332 -0.3036
vn -0.0482 0.5959 -0.8016
vn 0.9717 -0.2266 -0.0666
vn 0.9623 -0.2496 -0.1080
vn -0.0715 -0.2213 0.9726
vn -0.7533 0.2011 0.6262
vn -0.6613 0.6220 -0.4192
vn 0.0399 0.4151 -0.9089
vn 0.3823 0.0468 -0.9229
vn 0.9229 0.0468 -0.3823
vn 0.9213 0.0477 0.3860
vn 0.3860 0.0477 0.9213
vn -0.3823 0.0468 0.9229
vn -0.9237 0.0473 0.3802
vn -0.3823 0.0468 -0.9229
vn -0.9237 0.0473 -0.3802
vn 0.3169 0.9347 -0.1611
vn -0.5214 0.4966 -0.6939
vn -0.4379 0.0485 -0.8977
vn -0.9152 0.0225 -0.4023
vn -0.4894 -0.1702 0.8553
vn 0.6151 0.2139 -0.7589
vn -0.1464 0.7140 0.6847
vn -0.8030 0.4301 0.4125
vn 0.1482 -0.7327 0.6642
vn -0.0687 -0.8046 0.5899
vn -0.8350 -0.0218 -0.5498
vn 0.7013 0.3203 0.6368
vn 0.1623 0.9714 0.1735
vn -0.7197 0.6641 -0.2027
vn -0.0864 -0.9432 0.3207
vn 0.0231 -0.9010 0.4332
vn -0.9138 0.1454 -0.3792
vn 0.8158 -0.0434 0.5767
vn -0.5278 0.2451 -0.8132
vn 0.3996 0.0907 -0.9122
vn 0.9883 -0.0385 -0.1477
vn -0.9605 0.2743 0.0458
vn -0.4338 -0.6689 -0.6037
vn 0.3489 -0.7099 -0.6117
vn -0.2195 0.9703 -0.1015
vn 0.5563 0.8246 -0.1030
vn 0.9912 -0.0420 -0.1259
vn -0.9496 0.2948 -0.1069
vn -0.2483 -0.9387 -0.2392
vn 0.2209 -0.9490 -0.2250
vn -0.5359 0.1955 -0.8213
vn -0.7929 0.2375 -0.5612
vn -0.8509 0.2799 0.4445
vn -0.0238 0.9038 -0.4274
vn 0.3488 0.8405 -0.4146
vn 0.9292 0.2015 -0.3099
vn 0.4163 0.5458 -0.7272
vn -0.8047 0.2826 -0.5222
vn 0.7978 -0.0655 0.5993
vn -0.6433 0.2492 -0.7239
vn 0.7468 0.0041 0.6650
vn -0.3772 0.1608 0.9120
vn 0.4042 0.0643 0.9124
vn 0.9985 -0.0429 0.0341
vn -0.9674 0.2523 -0.0206
vn 0.3822 -0.7897 0.4798
vn -0.4838 -0.7231 0.4931
vn -0.2203 0.9753 -0.0159
vn 0.5181 0.8540 -0.0468
vn 0.9989 -0.0450 0.0156
vn -0.9611 0.2617 0.0884
vn 0.2795 -0.9473 0.1564
vn -0.4172 -0.8886 0.1905
usemtl troc.002
s 1
f 1//1 2//1 3//1 4//1
f 4//2 3//3 5//4 6//2
f 7//5 8//5 9//5 10//5
f 11//6 7//6 10//6 12//6
f 13//7 14//7 15//7 16//7
f 16//8 15//8 17//8 18//8
f 19//9 20//9 21//9 22//9
f 23//10 24//10 2//10 1//10
f 18//11 17//11 24//11 23//11
f 25//12 26//12 27//12 28//12 29//12 30//12 31//12 32//12
f 33//13 22//13 21//13 34//13 35//13 36//13 37//13 38//13
f 20//14 39//14 34//14 21//14
f 39//15 40//15 35//15 34//15
f 40//16 41//16 36//16 35//16
f 41//17 42//17 37//17 36//17
f 42//18 43//18 38//18 37//18
f 43//19 44//19 33//19 38//19
f 44//20 19//20 22//20 33//20
f 45//21 46//21 20//21 19//21
f 46//22 47//22 39//22 20//22
f 47//23 48//23 40//23 39//23
f 48//24 49//24 41//24 40//24
f 49//25 50//25 42//25 41//25
f 50//26 51//27 43//28 42//28
f 52//29 53//29 54//29 55//29
f 53//30 56//30 57//30 54//30
f 25//31 58//31 59//31 26//31
f 26//32 59//32 60//32 27//32
f 27//33 60//33 61//33 28//33
f 28//34 61//34 62//34 29//34
f 29//35 62//35 63//35 30//35
f 30//36 63//36 64//36 31//36
f 32//37 65//37 58//37 25//37
f 31//38 64//38 65//38 32//38
f 66//39 67//39 68//39 69//39
f 70//40 71//40 72//40 73//40
f 74//41 70//41 73//41 75//41
f 15//42 14//42 76//42 77//42
f 14//43 78//43 79//43 76//43
f 78//44 5//44 80//45 79//46
f 5//4 3//3 81//47 80//47
f 67//48 82//48 83//48 68//48
f 84//49 85//49 73//49 72//49
f 85//50 86//50 75//50 73//50
f 87//51 74//51 75//51 86//51
f 71//52 88//52 84//52 72//52
f 88//53 89//53 85//53 84//53
f 89//54 87//54 86//54 85//54
f 90//55 91//55 92//55 93//55
f 94//56 90//56 93//56 95//56
f 96//57 97//58 98//59 99//59
f 100//60 101//60 102//60 103//60
f 101//61 104//61 105//61 102//61
f 104//62 96//62 99//62 105//62
f 106//63 107//63 108//63 109//63
f 109//64 108//64 110//64 111//64
f 111//65 110//65 112//65 113//65
f 113//66 112//66 114//66 115//66
f 115//67 114//67 116//67 117//67
f 117//68 116//68 118//68 119//68
f 120//69 121//69 107//69 106//69
f 119//70 118//70 121//70 120//70
f 122//71 123//71 124//71 125//71
f 125//72 124//72 126//72 127//72
f 128//73 11//73 12//73 127//73
f 129//74 130//74 123//74 122//74
f 131//75 132//75 126//75 124//75
f 130//76 131//76 124//76 123//76
f 112//77 110//77 8//77 7//77
f 114//78 112//78 7//78 11//78
f 13//79 114//79 11//79 128//79
f 6//80 5//80 130//80 129//80
f 78//81 14//81 132//81 131//81
f 5//82 78//82 131//82 130//82
f 133//83 134//84 135//85 136//85
f 134//86 137//86 138//86 135//86
f 139//87 140//87 138//87 137//87
f 140//88 141//88 135//88 138//88
f 141//89 142//89 136//89 135//89
f 143//90 52//90 55//90 133//90
f 80//91 81//91 53//91 52//91
f 81//92 144//92 56//92 53//92
f 45//93 19//93 140//93 139//93
f 19//94 44//94 141//94 140//94
f 44//95 43//95 142//95 141//95
f 51//96 80//97 52//97 143//98
f 145//40 103//40 71//40 70//40
f 98//41 145//41 70//41 74//41
f 99//51 98//51 74//51 87//51
f 103//52 102//52 88//52 71//52
f 102//53 105//53 89//53 88//53
f 105//54 99//54 87//54 89//54
f 146//99 147//99 100//99 148//99
f 77//100 146//100 148//100 97//100
f 15//101 77//101 97//58 96//57
f 147//102 24//102 101//102 100//102
f 24//103 17//103 104//103 101//103
f 17//104 15//104 96//104 104//104
f 93//105 92//105 149//105 150//105
f 95//106 93//106 150//106 151//106
f 152//107 94//107 95//107 151//107
f 153//108 152//108 151//108 150//108
f 154//109 153//109 150//109 149//109
f 91//110 154//110 149//110 92//110
f 148//111 100//111 91//111 90//111
f 97//112 148//112 90//112 94//112
f 98//113 97//113 94//113 152//113
f 145//114 98//114 152//114 153//114
f 103//115 145//115 153//115 154//115
f 100//116 103//116 154//116 91//116
f 58//117 106//117 109//117 59//117
f 59//118 109//118 111//118 60//118
f 60//119 111//119 113//119 61//119
f 61//120 113//120 115//120 62//120
f 62//121 115//121 117//121 63//121
f 63//122 117//122 119//122 64//122
f 65//123 120//123 106//123 58//123
f 64//124 119//124 120//124 65//124
f 107//1 1//1 4//1 108//1
f 108//2 4//2 6//2 110//2
f 155//125 156//125 157//125 158//125
f 156//126 159//126 160//126 157//126
f 121//127 23//127 1//127 107//127
f 118//128 18//128 23//128 121//128
f 9//71 122//71 125//71 10//71
f 10//72 125//72 127//72 12//72
f 132//129 128//129 127//129 126//129
f 8//130 129//130 122//130 9//130
f 14//79 13//79 128//79 132//79
f 110//80 6//80 129//80 8//80
f 161//131 158//131 157//131 162//131
f 162//132 157//132 160//132 163//132
f 164//133 165//133 162//133 163//133
f 165//134 166//134 161//134 162//134
f 159//135 164//135 163//135 160//135
f 166//136 155//136 158//136 161//136
f 13//137 16//137 156//137 155//137
f 16//138 18//138 159//138 156//138
f 118//139 116//139 165//139 164//139
f 116//140 114//140 166//140 165//140
f 18//141 118//141 164//141 159//141
f 114//142 13//142 155//142 166//142
f 167//143 168//143 69//143 68//143
f 169//144 167//144 68//144 83//144
f 82//145 170//145 169//145 83//145
f 171//146 66//146 69//146 168//146
f 172//147 171//147 168//147 167//147
f 170//148 172//148 167//148 169//148
f 147//149 144//149 67//149 66//149
f 144//150 81//150 82//150 67//150
f 81//151 3//151 170//151 82//151
f 24//152 147//152 66//152 171//152
f 2//153 24//153 171//153 172//153
f 3//154 2//154 172//154 170//154
f 144//155 147//155 46//155 45//155
f 147//156 146//156 47//156 46//156
f 146//157 77//157 48//157 47//157
f 173//158 174//158 175//158 176//158
f 177//159 173//159 176//159 178//159
f 79//46 80//45 51//27 50//26
f 55//160 54//160 134//84 133//83
f 54//161 57//161 137//161 134//161
f 56//162 139//162 137//162 57//162
f 142//163 143//163 133//163 136//163
f 144//164 45//164 139//164 56//164
f 43//165 51//96 143//98 142//165
f 179//166 180//166 176//166 175//166
f 180//167 181//167 178//167 176//167
f 182//168 177//168 178//168 181//168
f 174//169 183//169 179//169 175//169
f 184//170 182//170 181//170 180//170
f 183//171 184//171 180//171 179//171
f 49//172 48//172 174//172 173//172
f 50//173 49//173 173//173 177//173
f 79//174 50//174 177//174 182//174
f 48//175 77//175 183//175 174//175
f 76//176 79//176 182//176 184//176
f 77//177 76//177 184//177 183//177
