# Blender v2.91.2 OBJ File: ''
# www.blender.org
mtllib leaflessTree.mtl
o Arbre_Automne_Cylinder.003
v 0.989057 1.887660 3.540944
v 0.989057 1.936622 3.540944
v 1.150351 1.958331 3.607754
v 1.150351 1.904646 3.607754
v 1.217161 1.934948 3.769048
v 1.217161 1.886114 3.769048
v 1.461859 1.964849 4.241849
v 1.505590 2.007055 4.136273
v 1.836977 2.618556 4.543463
v 1.847837 2.595803 4.587258
v 1.356282 2.007055 4.285580
v 1.817360 2.559808 4.605399
v 0.989057 1.895350 3.997151
v 0.989057 1.969473 3.997151
v 0.827764 1.976734 3.930341
v 0.827764 1.953705 3.930341
v 0.760954 1.909783 3.769048
v 0.760954 1.834979 3.769048
v 1.107716 2.582978 3.652557
v 1.032629 2.689127 3.686676
v 1.419037 3.458154 3.733601
v 1.452317 3.445952 3.718919
v 0.830741 1.897664 3.628750
v 0.831535 1.954481 3.634349
v 0.989057 -0.065052 3.477345
v 1.195322 -0.065052 3.562783
v 1.280760 -0.065052 3.769048
v 1.195322 -0.065052 3.975313
v 0.989057 -0.065052 4.060750
v 0.782793 -0.065052 3.975313
v 0.697355 -0.065052 3.769048
v 0.782793 -0.065052 3.562783
v 1.485597 3.433751 3.733601
v 1.405252 3.463208 3.769048
v 1.419037 3.458154 3.804494
v 1.452317 3.445952 3.819177
v 1.485597 3.433751 3.804494
v 1.499382 3.428697 3.769048
v 1.001527 2.701809 3.769048
v 1.032629 2.689127 3.851420
v 1.107716 2.658510 3.885539
v 1.182803 2.627893 3.851420
v 1.213906 2.539680 3.769048
v 1.182803 2.641738 3.686676
v 1.076807 2.433850 3.623483
v 0.977299 2.475111 3.685594
v 0.938860 2.519377 3.769048
v 0.979264 2.486170 3.871978
v 1.076807 2.508898 3.914613
v 1.174350 2.447391 3.871978
v 1.214754 2.401829 3.769048
v 1.494680 2.425092 3.454338
v 1.464080 2.392725 3.378187
v 1.760643 2.980377 3.092373
v 1.768613 2.976703 3.113607
v 1.390205 2.438624 3.346644
v 1.741404 2.994875 3.091955
v 0.989057 0.261615 3.540944
v 1.150351 0.261615 3.607754
v 1.217161 0.261615 3.769048
v 1.150351 0.261615 3.930341
v 0.989057 0.261615 3.997150
v 0.827764 0.261615 3.930341
v 0.760954 0.261615 3.769048
v 0.827764 0.261615 3.607754
v 0.959445 2.245710 3.301454
v 1.040434 2.257931 3.243118
v 1.029946 2.486708 2.776731
v 1.002993 2.482642 2.796144
v -0.061377 2.637912 3.757495
v -0.039891 2.605572 3.704024
v -0.493415 2.836787 3.733378
v -0.500707 2.847762 3.751525
v -0.039891 2.605572 3.810965
v -0.493415 2.836787 3.769672
v 1.048387 2.254884 3.941345
v 0.930196 2.299555 3.890880
v 1.150351 2.090137 3.930341
v 1.166577 2.281420 3.890880
v 1.215533 2.275079 3.769048
v 1.166577 2.223297 3.647215
v 1.118919 2.209167 3.276629
v 1.056065 2.470480 2.787883
v -0.508672 2.780618 3.727500
v -0.518624 2.774388 3.751525
v -0.508672 2.780618 3.775550
v -0.084847 2.440074 3.828284
v -0.084847 2.440074 3.686706
v -0.114169 2.421715 3.757495
v 0.442813 2.755757 3.878371
v 0.435592 2.763729 3.823491
v 0.337872 3.075042 4.060774
v 0.340687 3.071934 4.082166
v 0.436273 2.696923 3.895078
v 0.338137 3.049001 4.088678
v 0.284002 2.179132 3.875699
v 0.355662 2.432913 3.848093
v 0.172208 2.497442 3.830276
v 0.113363 2.280813 3.852945
v 0.354553 2.433023 3.688622
v 0.285111 2.179020 3.657844
v 0.113363 2.280813 3.667627
v 0.172208 2.497442 3.690296
v 0.237264 2.149866 3.762862
v 0.074983 2.256779 3.760286
v 0.989057 0.981465 3.577487
v 0.989057 1.701564 3.540944
v 1.150351 1.703327 3.607754
v 1.124511 0.981465 3.633594
v 1.217161 1.702949 3.769048
v 1.180618 0.981465 3.769048
v 1.150351 1.588473 3.930341
v 1.124511 0.954390 3.904502
v 0.989057 1.613873 3.997151
v 0.989057 0.981465 3.960609
v 0.827764 1.563590 3.930341
v 0.853603 0.981465 3.904502
v 0.760954 1.567123 3.769048
v 0.797497 0.966330 3.769048
v 0.853603 0.981465 3.633594
v 0.827764 1.668069 3.607754
v 1.789882 2.634282 4.543463
v 1.777324 2.638475 4.543463
v 1.755094 2.626774 4.587258
v 1.774619 2.620254 4.587258
v 1.757707 2.579729 4.605399
v 1.770265 2.575535 4.605399
v 1.356282 2.126746 4.285580
v 1.505590 2.126746 4.136273
v 1.505590 2.158664 4.136273
v 1.461859 2.276261 4.241849
v 1.356282 2.158664 4.285580
v 1.768486 2.998986 3.127991
v 1.761909 3.011069 3.115849
v 1.763285 3.044449 3.141381
v 1.768348 3.023219 3.143636
v 1.746031 3.016216 3.110911
v 1.751062 3.039425 3.131527
v 1.407969 2.546946 3.363354
v 1.427289 2.664754 3.381526
v 1.474222 2.688706 3.402852
v 1.493662 2.637691 3.454338
v 1.494192 2.526932 3.454338
v 1.048387 2.296730 3.596751
v 0.144084 2.539772 3.760286
v 0.881240 2.351634 3.769048
v 0.926425 2.278327 3.684599
v 0.366314 2.484461 3.762862
v 0.294232 3.086046 4.071578
v 0.287501 3.082039 4.090739
v 0.294232 3.063208 4.096087
v 0.323631 2.733367 3.914087
v 0.306363 2.781680 3.900367
v 0.323631 2.791963 3.851209
v 0.733247 1.889225 4.379760
v 0.674324 1.897305 4.280683
v 0.311255 2.083880 4.678865
v 0.345250 2.079561 4.690638
v 0.592350 1.800743 4.264961
v 0.290775 2.047787 4.676632
v 0.345250 2.041213 4.730628
v 0.311255 2.030730 4.734289
v 0.290775 2.011293 4.714687
v 0.492947 1.747645 4.381447
v 0.529550 1.819972 4.450338
v 0.628789 1.833426 4.502170
v 1.016835 2.407128 2.764398
v 0.982024 2.411075 2.785040
v 1.052479 2.411926 2.779162
v 1.108144 2.033216 3.250425
v 0.896433 2.030659 3.268085
v 1.001036 2.018800 3.206060
v 1.099976 2.522341 4.416612
v 1.032179 2.506542 4.386979
v 1.085093 2.751467 4.901980
v 1.123145 2.760334 4.918612
v 1.167773 2.479589 4.386979
v 1.161197 2.736339 4.901980
v 1.065952 2.678668 4.909354
v 1.112058 2.661241 4.929041
v 1.158165 2.671593 4.909354
v 1.162371 2.364232 4.400117
v 0.998074 2.376836 4.400117
v 1.080222 2.345787 4.435193
vn 0.3827 0.0000 -0.9239
vn 0.9239 0.0000 -0.3827
vn 0.8714 -0.4902 -0.0214
vn 0.3006 -0.6216 0.7234
vn -0.3827 0.0000 0.9239
vn -0.9239 0.0000 0.3827
vn -0.2402 0.1739 -0.9550
vn -0.4937 0.0497 -0.8682
vn -0.8942 0.0244 -0.4469
vn 0.0000 -1.0000 -0.0000
vn 0.3442 0.9389 0.0000
vn -0.8182 0.4340 -0.3771
vn -0.8182 0.4340 0.3771
vn -0.3268 0.2204 0.9190
vn 0.3796 -0.0888 0.9209
vn 0.8110 -0.2671 0.5204
vn 0.7970 -0.2637 -0.5434
vn 0.4485 -0.1148 -0.8864
vn -0.3670 0.1632 -0.9158
vn -0.8569 0.2563 -0.4473
vn -0.8691 0.2833 0.4055
vn -0.3881 0.2188 0.8953
vn 0.4410 0.0818 0.8938
vn 0.9332 0.0009 0.3594
vn 0.8368 -0.5175 -0.1790
vn 0.0242 -0.4382 -0.8985
vn 0.3766 0.1770 -0.9093
vn 0.9093 0.1770 -0.3766
vn 0.9093 0.1770 0.3766
vn 0.3766 0.1770 0.9093
vn -0.3766 0.1770 0.9093
vn -0.9093 0.1770 0.3766
vn -0.3766 0.1770 -0.9093
vn -0.9093 0.1770 -0.3766
vn 0.1764 0.8853 0.4303
vn 0.4081 0.8445 -0.3468
vn 0.3996 0.8466 0.3515
vn -0.3392 0.2330 0.9114
vn 0.3214 0.1363 0.9371
vn 0.9261 0.0026 0.3772
vn 0.9255 0.0024 -0.3787
vn 0.3509 0.8438 0.4060
vn -0.8874 0.2450 -0.3904
vn -0.8874 0.2450 0.3904
vn -0.0329 0.1129 0.9931
vn -0.0099 0.1067 -0.9942
vn -0.5919 -0.6860 -0.4231
vn -0.5987 -0.6794 0.4242
vn 0.9345 0.3485 -0.0723
vn 0.9057 0.0196 0.4235
vn -0.0565 0.1216 0.9910
vn 0.0185 0.1079 -0.9940
vn -0.4877 -0.7660 -0.4188
vn -0.5070 -0.7598 0.4071
vn 0.3825 -0.0468 -0.9228
vn 0.9228 -0.0467 -0.3823
vn 0.9309 -0.0497 0.3619
vn 0.3741 -0.0532 0.9259
vn -0.3741 -0.0555 0.9257
vn -0.9216 -0.0570 0.3840
vn -0.3776 -0.0479 -0.9247
vn -0.9152 -0.0524 -0.3996
vn 0.2926 0.8763 0.3827
vn 0.1212 0.3630 0.9239
vn -0.4574 -0.1591 0.8749
vn 0.6537 0.2273 -0.7219
vn -0.8028 0.5690 0.1783
vn -0.2438 0.7371 -0.6302
vn 0.7736 -0.6317 -0.0504
vn 0.1283 -0.6776 0.7241
vn -0.6177 0.0000 0.7864
vn 0.7864 0.0000 -0.6177
vn -0.6045 0.7707 0.2017
vn 0.2342 0.7267 -0.6458
vn 0.9331 0.1956 -0.3018
vn 0.3893 0.5553 -0.7349
vn -0.7839 0.2868 -0.5507
vn -0.5606 0.7360 0.3795
vn 0.0203 0.6012 0.7989
vn 0.8160 -0.0626 0.5746
vn 0.5693 -0.8137 0.1171
vn -0.1756 -0.7337 -0.6563
vn -0.6561 0.2495 -0.7122
vn -0.4428 0.8482 -0.2908
vn 0.4515 0.6672 0.5925
vn 0.7470 0.0041 0.6648
vn 0.2101 0.7896 -0.5765
vn 0.1992 0.8906 0.4089
vn -0.0474 0.1295 0.9904
vn 0.0207 0.1330 -0.9909
vn -0.3647 -0.8238 -0.4340
vn -0.3652 -0.8207 0.4393
vn 0.2454 0.9505 0.1905
vn 0.2251 0.2869 0.9311
vn -0.0088 -0.4837 0.8752
vn -0.9229 -0.2457 0.2963
vn -0.9435 0.1332 -0.3036
vn -0.0482 0.5959 -0.8016
vn 0.9717 -0.2266 -0.0666
vn 0.9623 -0.2496 -0.1080
vn -0.0715 -0.2213 0.9726
vn -0.7533 0.2011 0.6262
vn -0.6613 0.6220 -0.4192
vn 0.0399 0.4151 -0.9089
vn 0.3823 0.0468 -0.9229
vn 0.9229 0.0468 -0.3823
vn 0.9213 0.0477 0.3860
vn 0.3860 0.0477 0.9213
vn -0.3823 0.0468 0.9229
vn -0.9237 0.0473 0.3802
vn -0.3823 0.0468 -0.9229
vn -0.9237 0.0473 -0.3802
vn 0.3169 0.9347 -0.1611
vn -0.5214 0.4966 -0.6939
vn -0.4379 0.0485 -0.8977
vn -0.9152 0.0225 -0.4023
vn -0.4894 -0.1702 0.8553
vn 0.6151 0.2139 -0.7589
vn -0.1464 0.7140 0.6847
vn -0.8030 0.4301 0.4125
vn 0.1482 -0.7327 0.6642
vn -0.0687 -0.8046 0.5899
vn -0.8350 -0.0218 -0.5498
vn 0.7013 0.3203 0.6368
vn 0.1623 0.9714 0.1735
vn -0.7197 0.6641 -0.2027
vn -0.0864 -0.9432 0.3207
vn 0.0231 -0.9010 0.4332
vn -0.9138 0.1454 -0.3792
vn 0.8158 -0.0434 0.5767
vn -0.5278 0.2451 -0.8132
vn 0.3996 0.0907 -0.9122
vn 0.9883 -0.0385 -0.1477
vn -0.9605 0.2743 0.0458
vn -0.4338 -0.6689 -0.6037
vn 0.3489 -0.7099 -0.6117
vn -0.2195 0.9703 -0.1015
vn 0.5563 0.8246 -0.1030
vn 0.9912 -0.0420 -0.1259
vn -0.9496 0.2948 -0.1069
vn -0.2483 -0.9387 -0.2392
vn 0.2209 -0.9490 -0.2250
vn -0.5359 0.1955 -0.8213
vn -0.7929 0.2375 -0.5612
vn -0.8509 0.2799 0.4445
vn -0.0238 0.9038 -0.4274
vn 0.3488 0.8405 -0.4146
vn 0.9294 0.0016 0.3691
vn 0.9292 0.2015 -0.3099
vn 0.4163 0.5458 -0.7272
vn -0.8047 0.2826 -0.5222
vn 0.7978 -0.0655 0.5993
vn -0.6433 0.2492 -0.7239
vn 0.7468 0.0041 0.6650
vn -0.3772 0.1608 0.9121
vn 0.4042 0.0643 0.9124
vn 0.9985 -0.0429 0.0341
vn -0.9674 0.2523 -0.0206
vn 0.3822 -0.7897 0.4798
vn -0.4838 -0.7231 0.4931
vn -0.2203 0.9753 -0.0159
vn 0.5181 0.8540 -0.0468
vn 0.9989 -0.0450 0.0156
vn -0.9611 0.2617 0.0884
vn 0.2795 -0.9473 0.1564
vn -0.4172 -0.8886 0.1905
usemtl troc
s off
f 1//1 2//1 3//1 4//1
f 4//2 3//2 5//2 6//2
f 7//3 8//3 9//3 10//3
f 11//4 7//4 10//4 12//4
f 13//5 14//5 15//5 16//5
f 16//6 15//6 17//6 18//6
f 19//7 20//7 21//7 22//7
f 23//8 24//8 2//8 1//8
f 18//9 17//9 24//9 23//9
f 25//10 26//10 27//10 28//10 29//10 30//10 31//10 32//10
f 33//11 22//11 21//11 34//11 35//11 36//11 37//11 38//11
f 20//12 39//12 34//12 21//12
f 39//13 40//13 35//13 34//13
f 40//14 41//14 36//14 35//14
f 41//15 42//15 37//15 36//15
f 42//16 43//16 38//16 37//16
f 43//17 44//17 33//17 38//17
f 44//18 19//18 22//18 33//18
f 45//19 46//19 20//19 19//19
f 46//20 47//20 39//20 20//20
f 47//21 48//21 40//21 39//21
f 48//22 49//22 41//22 40//22
f 49//23 50//23 42//23 41//23
f 50//24 51//24 43//24 42//24
f 52//25 53//25 54//25 55//25
f 53//26 56//26 57//26 54//26
f 25//27 58//27 59//27 26//27
f 26//28 59//28 60//28 27//28
f 27//29 60//29 61//29 28//29
f 28//30 61//30 62//30 29//30
f 29//31 62//31 63//31 30//31
f 30//32 63//32 64//32 31//32
f 32//33 65//33 58//33 25//33
f 31//34 64//34 65//34 32//34
f 66//35 67//35 68//35 69//35
f 70//36 71//36 72//36 73//36
f 74//37 70//37 73//37 75//37
f 15//38 14//38 76//38 77//38
f 14//39 78//39 79//39 76//39
f 78//40 5//40 80//40 79//40
f 5//41 3//41 81//41 80//41
f 67//42 82//42 83//42 68//42
f 84//43 85//43 73//43 72//43
f 85//44 86//44 75//44 73//44
f 87//45 74//45 75//45 86//45
f 71//46 88//46 84//46 72//46
f 88//47 89//47 85//47 84//47
f 89//48 87//48 86//48 85//48
f 90//49 91//49 92//49 93//49
f 94//50 90//50 93//50 95//50
f 96//51 97//51 98//51 99//51
f 100//52 101//52 102//52 103//52
f 101//53 104//53 105//53 102//53
f 104//54 96//54 99//54 105//54
f 106//55 107//55 108//55 109//55
f 109//56 108//56 110//56 111//56
f 111//57 110//57 112//57 113//57
f 113//58 112//58 114//58 115//58
f 115//59 114//59 116//59 117//59
f 117//60 116//60 118//60 119//60
f 120//61 121//61 107//61 106//61
f 119//62 118//62 121//62 120//62
f 122//63 123//63 124//63 125//63
f 125//64 124//64 126//64 127//64
f 128//65 11//65 12//65 127//65
f 129//66 130//66 123//66 122//66
f 131//67 132//67 126//67 124//67
f 130//68 131//68 124//68 123//68
f 112//69 110//69 8//69 7//69
f 114//70 112//70 7//70 11//70
f 13//71 114//71 11//71 128//71
f 6//72 5//72 130//72 129//72
f 78//73 14//73 132//73 131//73
f 5//74 78//74 131//74 130//74
f 133//75 134//75 135//75 136//75
f 134//76 137//76 138//76 135//76
f 139//77 140//77 138//77 137//77
f 140//78 141//78 135//78 138//78
f 141//79 142//79 136//79 135//79
f 143//80 52//80 55//80 133//80
f 80//81 81//81 53//81 52//81
f 81//82 144//82 56//82 53//82
f 45//83 19//83 140//83 139//83
f 19//84 44//84 141//84 140//84
f 44//85 43//85 142//85 141//85
f 51//86 80//86 52//86 143//86
f 145//36 103//36 71//36 70//36
f 98//37 145//37 70//37 74//37
f 99//45 98//45 74//45 87//45
f 103//46 102//46 88//46 71//46
f 102//47 105//47 89//47 88//47
f 105//48 99//48 87//48 89//48
f 146//87 147//87 100//87 148//87
f 77//88 146//88 148//88 97//88
f 15//89 77//89 97//89 96//89
f 147//90 24//90 101//90 100//90
f 24//91 17//91 104//91 101//91
f 17//92 15//92 96//92 104//92
f 93//93 92//93 149//93 150//93
f 95//94 93//94 150//94 151//94
f 152//95 94//95 95//95 151//95
f 153//96 152//96 151//96 150//96
f 154//97 153//97 150//97 149//97
f 91//98 154//98 149//98 92//98
f 148//99 100//99 91//99 90//99
f 97//100 148//100 90//100 94//100
f 98//101 97//101 94//101 152//101
f 145//102 98//102 152//102 153//102
f 103//103 145//103 153//103 154//103
f 100//104 103//104 154//104 91//104
f 58//105 106//105 109//105 59//105
f 59//106 109//106 111//106 60//106
f 60//107 111//107 113//107 61//107
f 61//108 113//108 115//108 62//108
f 62//109 115//109 117//109 63//109
f 63//110 117//110 119//110 64//110
f 65//111 120//111 106//111 58//111
f 64//112 119//112 120//112 65//112
f 107//1 1//1 4//1 108//1
f 108//2 4//2 6//2 110//2
f 155//113 156//113 157//113 158//113
f 156//114 159//114 160//114 157//114
f 121//115 23//115 1//115 107//115
f 118//116 18//116 23//116 121//116
f 9//63 122//63 125//63 10//63
f 10//64 125//64 127//64 12//64
f 132//117 128//117 127//117 126//117
f 8//118 129//118 122//118 9//118
f 14//71 13//71 128//71 132//71
f 110//72 6//72 129//72 8//72
f 161//119 158//119 157//119 162//119
f 162//120 157//120 160//120 163//120
f 164//121 165//121 162//121 163//121
f 165//122 166//122 161//122 162//122
f 159//123 164//123 163//123 160//123
f 166//124 155//124 158//124 161//124
f 13//125 16//125 156//125 155//125
f 16//126 18//126 159//126 156//126
f 118//127 116//127 165//127 164//127
f 116//128 114//128 166//128 165//128
f 18//129 118//129 164//129 159//129
f 114//130 13//130 155//130 166//130
f 167//131 168//131 69//131 68//131
f 169//132 167//132 68//132 83//132
f 82//133 170//133 169//133 83//133
f 171//134 66//134 69//134 168//134
f 172//135 171//135 168//135 167//135
f 170//136 172//136 167//136 169//136
f 147//137 144//137 67//137 66//137
f 144//138 81//138 82//138 67//138
f 81//139 3//139 170//139 82//139
f 24//140 147//140 66//140 171//140
f 2//141 24//141 171//141 172//141
f 3//142 2//142 172//142 170//142
f 144//143 147//143 46//143 45//143
f 147//144 146//144 47//144 46//144
f 146//145 77//145 48//145 47//145
f 173//146 174//146 175//146 176//146
f 177//147 173//147 176//147 178//147
f 79//148 80//148 51//148 50//148
f 55//149 54//149 134//149 133//149
f 54//150 57//150 137//150 134//150
f 56//151 139//151 137//151 57//151
f 142//152 143//152 133//152 136//152
f 144//153 45//153 139//153 56//153
f 43//154 51//154 143//154 142//154
f 179//155 180//155 176//155 175//155
f 180//156 181//156 178//156 176//156
f 182//157 177//157 178//157 181//157
f 174//158 183//158 179//158 175//158
f 184//159 182//159 181//159 180//159
f 183//160 184//160 180//160 179//160
f 49//161 48//161 174//161 173//161
f 50//162 49//162 173//162 177//162
f 79//163 50//163 177//163 182//163
f 48//164 77//164 183//164 174//164
f 76//165 79//165 182//165 184//165
f 77//166 76//166 184//166 183//166
