# Blender v2.91.2 OBJ File: ''
# www.blender.org
mtllib regularTree.mtl
o SapinHiver.015_Cylinder.034
v 0.832514 -0.305848 -2.732461
v 0.781584 0.955975 -2.741042
v 0.941628 0.962837 -2.681927
v 0.992558 -0.298986 -2.673347
v 1.012997 0.966772 -2.526857
v 1.063927 -0.295051 -2.518277
v 0.953885 0.965476 -2.366671
v 1.004815 -0.296348 -2.358090
v 0.798918 0.959707 -2.295203
v 0.849848 -0.302116 -2.286622
v 0.638875 0.952845 -2.354318
v 0.689804 -0.308978 -2.345737
v 0.567505 0.948910 -2.509387
v 0.618435 -0.312913 -2.500807
v 0.626618 0.950207 -2.669574
v 0.677547 -0.311617 -2.660993
v 0.659826 3.939517 -2.795424
v 0.638831 4.699448 -2.553807
v 0.646184 4.699762 -2.551091
v 0.827769 4.039986 -2.714023
v 0.649463 4.699944 -2.543967
v 0.926630 3.951963 -2.548483
v 0.646747 4.699883 -2.536607
v 0.840862 4.042803 -2.377261
v 0.639627 4.699618 -2.533323
v 0.679811 3.943819 -2.281399
v 0.632274 4.699304 -2.536040
v 0.504362 4.029312 -2.364065
v 0.628995 4.699122 -2.543164
v 0.413006 3.931370 -2.528341
v 0.491269 4.026494 -2.700827
v 0.631711 4.699183 -2.550524
v 0.767824 0.791131 -3.260491
v 1.260735 0.905772 -3.023825
v 1.539609 0.827138 -2.546163
v 1.298610 0.913925 -2.049673
v 0.825634 0.803575 -1.773571
v 0.325217 0.874896 -2.011501
v 0.053849 0.767566 -2.487899
v 0.287342 0.866744 -2.985654
v 0.757505 0.758631 -3.556840
v 0.746567 1.426937 -3.152464
v 1.164428 1.538306 -2.951657
v 1.448528 0.881912 -3.225520
v 0.737591 1.394726 -3.414299
v 0.725310 2.062743 -3.044438
v 1.068121 2.170840 -2.879488
v 1.330505 1.513728 -3.129854
v 0.718237 2.030942 -3.257320
v 0.704054 2.698550 -2.936410
v 0.971813 2.803372 -2.807318
v 1.203399 2.145247 -3.024357
v 0.698819 2.667145 -3.102021
v 0.682797 3.334358 -2.828385
v 0.875506 3.435906 -2.735151
v 1.077349 2.776798 -2.920003
v 0.679099 3.303282 -2.954467
v 0.661541 3.970164 -2.720357
v 0.779199 4.068440 -2.662981
v 0.956173 3.408510 -2.820925
v 1.401728 1.457504 -2.546078
v 1.837143 0.809001 -2.557579
v 1.263848 2.087869 -2.545993
v 1.664775 1.437984 -2.556142
v 1.125967 2.718235 -2.545907
v 1.477980 2.066388 -2.554139
v 0.988087 3.348600 -2.545823
v 1.292863 2.694860 -2.552202
v 0.850206 3.978966 -2.545737
v 1.115486 3.323642 -2.550568
v 1.196579 1.545226 -2.124708
v 1.501510 0.893317 -1.862796
v 1.094549 2.176528 -2.199743
v 1.376006 1.523523 -1.959556
v 0.992518 2.807831 -2.274777
v 1.240682 2.153271 -2.065406
v 0.890488 3.439131 -2.349813
v 1.106501 2.783073 -2.170197
v 0.788457 4.070434 -2.424846
v 0.977588 3.413121 -2.270113
v 0.795642 1.437501 -1.890232
v 0.838376 0.776038 -1.476814
v 0.765649 2.071427 -2.006893
v 0.807041 1.409676 -1.627989
v 0.735657 2.705353 -2.123554
v 0.775146 2.043192 -1.793602
v 0.705665 3.339279 -2.240215
v 0.743316 2.676723 -1.957536
v 0.675673 3.973207 -2.356875
v 0.711786 3.310318 -2.113724
v 0.370275 1.512095 -2.092304
v 0.139847 0.838720 -1.809398
v 0.415333 2.149294 -2.173107
v 0.206621 1.476636 -1.913699
v 0.460392 2.786494 -2.253910
v 0.282478 2.114852 -2.027830
v 0.505450 3.423693 -2.334713
v 0.357279 2.753033 -2.140816
v 0.550508 4.060894 -2.415515
v 0.427206 3.391053 -2.248531
v 0.140480 1.406933 -2.496618
v -0.241262 0.725667 -2.476074
v 0.227112 2.046301 -2.505337
v -0.120143 1.366417 -2.486146
v 0.313744 2.685668 -2.514056
v 0.015404 2.007746 -2.496784
v 0.400375 3.325037 -2.522775
v 0.149271 2.649008 -2.507354
v 0.487007 3.964403 -2.531495
v 0.275399 3.289958 -2.517623
v 0.086865 0.827316 -3.172123
v 0.338124 1.505175 -2.919253
v 0.161120 1.466841 -3.083997
v 0.388905 2.143605 -2.852853
v 0.245195 2.106827 -2.986781
v 0.439687 2.782037 -2.786452
v 0.328127 2.746758 -2.890624
v 0.490468 3.420469 -2.720052
v 0.405791 3.386443 -2.799341
v 0.541250 4.058899 -2.653650
vn 0.3462 0.0076 -0.9381
vn 0.9076 0.0338 -0.4186
vn 0.9373 0.0402 0.3462
vn 0.4180 0.0230 0.9082
vn -0.3462 -0.0076 0.9381
vn -0.9076 -0.0338 0.4186
vn -0.0403 0.9992 -0.0068
vn -0.4180 -0.0230 -0.9082
vn -0.9373 -0.0402 -0.3462
vn 0.0403 -0.9992 0.0068
vn 0.2675 0.2992 -0.9159
vn 0.8768 0.3276 -0.3520
vn 0.9013 0.3329 0.2774
vn 0.3376 0.3143 0.8873
vn -0.2913 0.2890 0.9119
vn -0.9005 0.2606 0.3480
vn -0.3614 0.2740 -0.8913
vn -0.9250 0.2554 -0.2814
vn 0.2921 0.4866 -0.8233
vn 0.2936 0.4545 -0.8410
vn 0.2975 0.4058 -0.8642
vn 0.2960 0.3551 -0.8867
vn 0.2799 0.3096 -0.9087
vn 0.7733 0.5091 -0.3780
vn 0.7924 0.4777 -0.3793
vn 0.8176 0.4301 -0.3827
vn 0.8427 0.3807 -0.3807
vn 0.8682 0.3370 -0.3643
vn 0.8000 0.5148 0.3082
vn 0.8191 0.4835 0.3086
vn 0.8446 0.4359 0.3109
vn 0.8695 0.3864 0.3077
vn 0.8936 0.3425 0.2901
vn 0.3549 0.5001 0.7899
vn 0.3577 0.4683 0.8079
vn 0.3634 0.4200 0.8316
vn 0.3637 0.3697 0.8550
vn 0.3494 0.3245 0.8790
vn -0.3308 0.4726 0.8168
vn -0.3297 0.4407 0.8349
vn -0.3297 0.3922 0.8588
vn -0.3241 0.3421 0.8820
vn -0.3045 0.2983 0.9046
vn -0.8120 0.4502 0.3715
vn -0.8285 0.4174 0.3732
vn -0.8499 0.3679 0.3773
vn -0.8709 0.3166 0.3759
vn -0.8927 0.2709 0.3602
vn -0.3936 0.4591 -0.7964
vn -0.3938 0.4269 -0.8140
vn -0.3956 0.3780 -0.8370
vn -0.3918 0.3276 -0.8598
vn -0.3740 0.2833 -0.8831
vn -0.8387 0.4444 -0.3148
vn -0.8553 0.4117 -0.3147
vn -0.8768 0.3621 -0.3163
vn -0.8976 0.3109 -0.3124
vn -0.9181 0.2654 -0.2942
vn 0.3199 -0.8067 0.4969
vn -0.4787 -0.8439 -0.2422
vn -0.4579 -0.8395 0.2927
vn 0.2809 -0.8151 -0.5067
vn -0.2536 -0.8365 -0.4857
vn 0.5450 -0.7993 0.2534
vn -0.2146 -0.8281 0.5179
vn 0.5242 -0.8037 -0.2815
vn 0.2378 -0.9107 0.3377
vn -0.3087 -0.9362 -0.1681
vn -0.2941 -0.9331 0.2071
vn 0.2115 -0.9164 -0.3399
vn -0.1635 -0.9314 -0.3252
vn 0.3830 -0.9059 0.1806
vn -0.1371 -0.9257 0.3524
vn 0.3685 -0.9090 -0.1946
vn 0.1867 -0.9462 0.2644
vn -0.2300 -0.9656 -0.1213
vn -0.2193 -0.9633 0.1549
vn 0.1662 -0.9506 -0.2623
vn -0.1097 -0.9616 -0.2514
vn 0.3070 -0.9422 0.1342
vn -0.0892 -0.9572 0.2752
vn 0.2963 -0.9445 -0.1419
vn 0.1576 -0.9646 0.2112
vn -0.1739 -0.9801 -0.0956
vn -0.1653 -0.9783 0.1252
vn 0.1413 -0.9681 -0.2067
vn -0.0792 -0.9770 -0.1980
vn 0.2523 -0.9615 0.1088
vn -0.0630 -0.9735 0.2199
vn 0.2437 -0.9634 -0.1120
vn 0.1381 -0.9748 0.1751
vn -0.1359 -0.9876 -0.0785
vn -0.1288 -0.9861 0.1053
vn 0.1247 -0.9777 -0.1690
vn -0.0590 -0.9851 -0.1618
vn 0.2150 -0.9723 0.0919
vn -0.0456 -0.9822 0.1823
vn 0.2079 -0.9738 -0.0920
vn 0.1228 -0.9803 0.1547
vn -0.1142 -0.9914 -0.0646
vn -0.1082 -0.9901 0.0899
vn 0.1110 -0.9828 -0.1474
vn -0.0433 -0.9890 -0.1413
vn 0.1936 -0.9780 0.0780
vn -0.0316 -0.9865 0.1607
vn 0.1876 -0.9793 -0.0765
usemtl Material.008
s off
f 1//1 2//1 3//1 4//1
f 4//2 3//2 5//2 6//2
f 6//3 5//3 7//3 8//3
f 8//4 7//4 9//4 10//4
f 10//5 9//5 11//5 12//5
f 12//6 11//6 13//6 14//6
f 3//7 2//7 15//7 13//7 11//7 9//7 7//7 5//7
f 16//8 15//8 2//8 1//8
f 14//9 13//9 15//9 16//9
f 1//10 4//10 6//10 8//10 10//10 12//10 14//10 16//10
usemtl Material.009
f 17//11 18//11 19//11 20//11
f 20//12 19//12 21//12 22//12
f 22//13 21//13 23//13 24//13
f 24//14 23//14 25//14 26//14
f 26//15 25//15 27//15 28//15
f 28//16 27//16 29//16 30//16
f 31//17 32//17 18//17 17//17
f 30//18 29//18 32//18 31//18
f 33//10 34//10 35//10 36//10 37//10 38//10 39//10 40//10
f 19//7 18//7 32//7 29//7 27//7 25//7 23//7 21//7
f 41//19 42//19 43//19 44//19
f 45//20 46//20 47//20 48//20
f 49//21 50//21 51//21 52//21
f 53//22 54//22 55//22 56//22
f 57//23 58//23 59//23 60//23
f 44//24 43//24 61//24 62//24
f 48//25 47//25 63//25 64//25
f 52//26 51//26 65//26 66//26
f 56//27 55//27 67//27 68//27
f 60//28 59//28 69//28 70//28
f 62//29 61//29 71//29 72//29
f 64//30 63//30 73//30 74//30
f 66//31 65//31 75//31 76//31
f 68//32 67//32 77//32 78//32
f 70//33 69//33 79//33 80//33
f 72//34 71//34 81//34 82//34
f 74//35 73//35 83//35 84//35
f 76//36 75//36 85//36 86//36
f 78//37 77//37 87//37 88//37
f 80//38 79//38 89//38 90//38
f 82//39 81//39 91//39 92//39
f 84//40 83//40 93//40 94//40
f 86//41 85//41 95//41 96//41
f 88//42 87//42 97//42 98//42
f 90//43 89//43 99//43 100//43
f 92//44 91//44 101//44 102//44
f 94//45 93//45 103//45 104//45
f 96//46 95//46 105//46 106//46
f 98//47 97//47 107//47 108//47
f 100//48 99//48 109//48 110//48
f 111//49 112//49 42//49 41//49
f 113//50 114//50 46//50 45//50
f 115//51 116//51 50//51 49//51
f 117//52 118//52 54//52 53//52
f 119//53 120//53 58//53 57//53
f 102//54 101//54 112//54 111//54
f 104//55 103//55 114//55 113//55
f 106//56 105//56 116//56 115//56
f 108//57 107//57 118//57 117//57
f 110//58 109//58 120//58 119//58
f 58//59 17//59 20//59 59//59
f 59//60 20//60 22//60 69//60
f 69//61 22//61 24//61 79//61
f 79//62 24//62 26//62 89//62
f 89//63 26//63 28//63 99//63
f 99//64 28//64 30//64 109//64
f 120//65 31//65 17//65 58//65
f 109//66 30//66 31//66 120//66
f 54//67 57//67 60//67 55//67
f 55//68 60//68 70//68 67//68
f 67//69 70//69 80//69 77//69
f 77//70 80//70 90//70 87//70
f 87//71 90//71 100//71 97//71
f 97//72 100//72 110//72 107//72
f 118//73 119//73 57//73 54//73
f 107//74 110//74 119//74 118//74
f 50//75 53//75 56//75 51//75
f 51//76 56//76 68//76 65//76
f 65//77 68//77 78//77 75//77
f 75//78 78//78 88//78 85//78
f 85//79 88//79 98//79 95//79
f 95//80 98//80 108//80 105//80
f 116//81 117//81 53//81 50//81
f 105//82 108//82 117//82 116//82
f 46//83 49//83 52//83 47//83
f 47//84 52//84 66//84 63//84
f 63//85 66//85 76//85 73//85
f 73//86 76//86 86//86 83//86
f 83//87 86//87 96//87 93//87
f 93//88 96//88 106//88 103//88
f 114//89 115//89 49//89 46//89
f 103//90 106//90 115//90 114//90
f 42//91 45//91 48//91 43//91
f 43//92 48//92 64//92 61//92
f 61//93 64//93 74//93 71//93
f 71//94 74//94 84//94 81//94
f 81//95 84//95 94//95 91//95
f 91//96 94//96 104//96 101//96
f 112//97 113//97 45//97 42//97
f 101//98 104//98 113//98 112//98
f 33//99 41//99 44//99 34//99
f 34//100 44//100 62//100 35//100
f 35//101 62//101 72//101 36//101
f 36//102 72//102 82//102 37//102
f 37//103 82//103 92//103 38//103
f 38//104 92//104 102//104 39//104
f 40//105 111//105 41//105 33//105
f 39//106 102//106 111//106 40//106
