# Blender v2.91.2 OBJ File: ''
# www.blender.org
mtllib snowTree.mtl
o SapinHiver_Cylinder.008
v 0.000000 -1.800969 -0.223096
v 0.000000 -0.538090 -0.223096
v 0.157752 -0.538090 -0.157753
v 0.157752 -1.800969 -0.157753
v 0.223095 -0.538090 -0.000000
v 0.223095 -1.800969 -0.000000
v 0.157752 -0.538090 0.157752
v 0.157752 -1.800969 0.157752
v -0.000001 -0.538090 0.223096
v -0.000001 -1.800969 0.223095
v -0.157753 -0.538090 0.157752
v -0.157753 -1.800969 0.157752
v -0.223096 -0.538090 -0.000000
v -0.223096 -1.800969 -0.000000
v -0.157753 -0.538090 -0.157753
v -0.157753 -1.800969 -0.157753
v 0.000000 2.446081 -0.249717
v 0.000000 3.182467 -0.009951
v 0.007036 3.182467 -0.007036
v 0.163601 2.536427 -0.163601
v 0.009951 3.182467 0.000001
v 0.249716 2.446081 0.000001
v 0.007036 3.182467 0.007037
v 0.163601 2.536427 0.163601
v 0.000000 3.182467 0.009952
v 0.000000 2.446081 0.249716
v -0.007037 3.182467 0.007037
v -0.163602 2.536427 0.163601
v -0.009952 3.182467 0.000001
v -0.249717 2.446081 0.000001
v -0.163602 2.536427 -0.163601
v -0.007037 3.182467 -0.007036
v 0.000000 -0.609115 -0.722355
v 0.473249 -0.518769 -0.473249
v 0.722354 -0.609115 -0.000000
v 0.473249 -0.518769 0.473249
v -0.000001 -0.609115 0.722354
v -0.473250 -0.518769 0.473249
v -0.722355 -0.609115 -0.000000
v -0.473250 -0.518769 -0.473249
v 0.000000 -0.638282 -1.010489
v 0.000000 0.007758 -0.613200
v 0.401736 0.098104 -0.401737
v 0.662019 -0.547936 -0.662020
v 0.000000 -0.021410 -0.867801
v 0.000000 0.624630 -0.504045
v 0.330224 0.714977 -0.330224
v 0.568537 0.068937 -0.568538
v 0.000000 0.595463 -0.711082
v 0.000000 1.241503 -0.394891
v 0.258711 1.331849 -0.258712
v 0.465864 0.685809 -0.465865
v 0.000000 1.212335 -0.555997
v 0.000000 1.858376 -0.285736
v 0.187199 1.948722 -0.187200
v 0.364260 1.302682 -0.364261
v 0.000000 1.829208 -0.408438
v 0.000000 2.475248 -0.176581
v 0.115687 2.565594 -0.115687
v 0.267587 1.919555 -0.267588
v 0.613199 0.007758 0.000001
v 1.010489 -0.638282 -0.000000
v 0.504045 0.624630 0.000001
v 0.867800 -0.021410 0.000001
v 0.394890 1.241503 0.000001
v 0.711082 0.595463 0.000001
v 0.285736 1.858376 0.000001
v 0.555997 1.212335 0.000001
v 0.176581 2.475248 0.000001
v 0.408438 1.829208 0.000001
v 0.401736 0.098104 0.401736
v 0.662019 -0.547936 0.662019
v 0.330224 0.714977 0.330225
v 0.568537 0.068937 0.568537
v 0.258711 1.331849 0.258711
v 0.465864 0.685809 0.465864
v 0.187199 1.948722 0.187200
v 0.364260 1.302682 0.364260
v 0.115687 2.565594 0.115687
v 0.267587 1.919555 0.267587
v -0.000001 0.007758 0.613199
v -0.000001 -0.638282 1.010489
v -0.000001 0.624630 0.504046
v -0.000001 -0.021410 0.867800
v -0.000001 1.241503 0.394890
v -0.000001 0.595463 0.711083
v 0.000000 1.858376 0.285737
v -0.000001 1.212335 0.555997
v 0.000000 2.475248 0.176581
v 0.000000 1.829208 0.408437
v -0.401737 0.098104 0.401736
v -0.662020 -0.547936 0.662019
v -0.330225 0.714977 0.330225
v -0.568538 0.068937 0.568537
v -0.258712 1.331849 0.258711
v -0.465865 0.685809 0.465864
v -0.187200 1.948722 0.187200
v -0.364261 1.302682 0.364260
v -0.115688 2.565594 0.115687
v -0.267588 1.919555 0.267587
v -0.613200 0.007758 0.000001
v -1.010489 -0.638282 -0.000000
v -0.504046 0.624630 0.000001
v -0.867801 -0.021410 0.000001
v -0.394891 1.241503 0.000001
v -0.711083 0.595463 0.000001
v -0.285737 1.858376 0.000001
v -0.555998 1.212335 0.000001
v -0.176582 2.475248 0.000001
v -0.408438 1.829208 0.000001
v -0.662020 -0.547936 -0.662020
v -0.401737 0.098104 -0.401737
v -0.568538 0.068937 -0.568538
v -0.330225 0.714977 -0.330224
v -0.465865 0.685809 -0.465865
v -0.258712 1.331849 -0.258712
v -0.364261 1.302682 -0.364261
v -0.187200 1.948722 -0.187200
v -0.267588 1.919555 -0.267588
v -0.115688 2.565594 -0.115687
v 0.473249 -0.482230 0.473249
v 0.662019 -0.511397 0.662019
v -0.000001 -0.601744 1.010489
v -0.000001 -0.572576 0.722354
v 0.000000 -0.572576 -0.722355
v 0.000000 -0.601744 -1.010489
v 0.662019 -0.511397 -0.662020
v 0.473249 -0.482230 -0.473249
v -0.401737 0.134643 -0.401737
v -0.568538 0.105475 -0.568538
v 0.000000 0.015129 -0.867801
v 0.000000 0.044296 -0.613200
v -0.000001 0.044296 0.613199
v -0.000001 0.015129 0.867800
v -0.568538 0.105475 0.568537
v -0.401737 0.134643 0.401736
v 0.613199 0.044296 0.000001
v 0.867800 0.015129 0.000001
v 0.568537 0.105475 0.568537
v 0.401736 0.134643 0.401736
v 0.568537 0.105475 -0.568538
v 0.401736 0.134643 -0.401737
v 0.722354 -0.572576 -0.000000
v 1.010489 -0.601744 -0.000000
v -0.330225 0.751515 -0.330224
v -0.465865 0.722348 -0.465865
v 0.000000 0.632002 -0.711082
v 0.000000 0.661169 -0.504045
v -0.473250 -0.482230 -0.473249
v -0.662020 -0.511397 -0.662020
v -0.662020 -0.511397 0.662019
v -0.473250 -0.482230 0.473249
v -0.000001 0.661169 0.504046
v -0.000001 0.632002 0.711083
v -0.465865 0.722348 0.465864
v -0.330225 0.751515 0.330225
v 0.465864 0.722348 -0.465865
v 0.330224 0.751515 -0.330224
v -0.000001 1.278041 0.394890
v -0.000001 1.248874 0.555997
v -0.364261 1.339221 0.364260
v -0.258712 1.368388 0.258711
v 0.000000 1.278041 -0.394891
v 0.000000 1.248874 -0.555997
v 0.364260 1.339221 -0.364261
v 0.258711 1.368388 -0.258712
v 0.000000 1.894914 0.285737
v 0.000000 1.865747 0.408437
v -0.267588 1.956093 0.267587
v -0.187200 1.985261 0.187200
v 0.000000 2.511787 -0.176581
v 0.000000 2.482620 -0.249717
v 0.163601 2.572966 -0.163601
v 0.115687 2.602133 -0.115687
v 0.176581 2.511787 0.000001
v 0.249716 2.482620 0.000001
v 0.163601 2.572966 0.163601
v 0.115687 2.602133 0.115687
v 0.000000 2.511787 0.176581
v 0.000000 2.482620 0.249716
v -0.163602 2.572966 0.163601
v -0.115688 2.602133 0.115687
v -0.115688 2.602133 -0.115687
v -0.163602 2.572966 -0.163601
v 0.000000 1.894914 -0.285736
v 0.000000 1.865747 -0.408438
v 0.267587 1.956093 -0.267588
v 0.187199 1.985261 -0.187200
v -0.258712 1.368388 -0.258712
v -0.267588 1.956093 -0.267588
v -0.867801 0.015129 0.000001
v -0.504046 0.661169 0.000001
v -0.555998 1.248874 0.000001
v -0.285737 1.894914 0.000001
v -0.187200 1.985261 -0.187200
v -0.364261 1.339221 -0.364261
v 0.711082 0.632002 0.000001
v 0.394890 1.278041 0.000001
v 0.258711 1.368388 0.258711
v 0.465864 0.722348 0.465864
v 0.408438 1.865747 0.000001
v 0.267587 1.956093 0.267587
v 0.330224 0.751515 0.330225
v 0.364260 1.339221 0.364260
v 0.187199 1.985261 0.187200
v 0.504045 0.661169 0.000001
v 0.285736 1.894914 0.000001
v 0.555997 1.248874 0.000001
v -0.711083 0.632002 0.000001
v -0.394891 1.278041 0.000001
v -0.408438 1.865747 0.000001
v 0.000000 3.219006 -0.009951
v 0.007036 3.219006 -0.007036
v 0.009951 3.219006 0.000001
v 0.007036 3.219006 0.007037
v 0.000000 3.219006 0.009952
v -0.007037 3.219006 0.007037
v -0.007037 3.219006 -0.007036
v -0.722355 -0.572576 -0.000000
v -0.176582 2.511787 0.000001
v -0.009952 3.219006 0.000001
v -0.249717 2.482620 0.000001
v -1.010489 -0.601744 -0.000000
v -0.613200 0.044296 0.000001
vn 0.3827 0.0000 -0.9239
vn 0.9239 0.0000 -0.3827
vn 0.9239 -0.0000 0.3827
vn 0.3827 -0.0000 0.9239
vn -0.3827 -0.0000 0.9239
vn -0.9239 -0.0000 0.3827
vn 0.0000 1.0000 0.0000
vn -0.3827 0.0000 -0.9239
vn -0.9239 0.0000 -0.3827
vn 0.0000 -1.0000 -0.0000
vn 0.3149 0.2944 -0.9023
vn 0.9023 0.2944 -0.3149
vn 0.9023 0.2944 0.3149
vn 0.3149 0.2944 0.9023
vn -0.3149 0.2944 0.9023
vn -0.9023 0.2944 0.3149
vn -0.3149 0.2944 -0.9023
vn -0.9023 0.2944 -0.3149
vn 0.3434 0.4800 -0.8073
vn 0.3443 0.4480 -0.8251
vn 0.3471 0.3993 -0.8486
vn 0.3444 0.3489 -0.8716
vn 0.3275 0.3042 -0.8946
vn 0.8073 0.4800 -0.3434
vn 0.8251 0.4480 -0.3443
vn 0.8486 0.3993 -0.3471
vn 0.8716 0.3489 -0.3444
vn 0.8946 0.3042 -0.3275
vn 0.8073 0.4800 0.3434
vn 0.8251 0.4480 0.3443
vn 0.8486 0.3993 0.3471
vn 0.8716 0.3489 0.3444
vn 0.8946 0.3042 0.3275
vn 0.3434 0.4800 0.8073
vn 0.3443 0.4480 0.8251
vn 0.3471 0.3993 0.8486
vn 0.3444 0.3489 0.8716
vn 0.3275 0.3042 0.8946
vn -0.3434 0.4800 0.8073
vn -0.3443 0.4480 0.8251
vn -0.3471 0.3993 0.8486
vn -0.3444 0.3489 0.8716
vn -0.3275 0.3042 0.8946
vn -0.8073 0.4800 0.3434
vn -0.8251 0.4480 0.3443
vn -0.8486 0.3993 0.3471
vn -0.8716 0.3489 0.3444
vn -0.8946 0.3042 0.3275
vn -0.3434 0.4800 -0.8073
vn -0.3443 0.4480 -0.8251
vn -0.3471 0.3993 -0.8486
vn -0.3444 0.3489 -0.8716
vn -0.3275 0.3042 -0.8946
vn -0.8073 0.4800 -0.3434
vn -0.8251 0.4480 -0.3443
vn -0.8486 0.3993 -0.3471
vn -0.8716 0.3489 -0.3444
vn -0.8946 0.3042 -0.3275
vn 0.2677 -0.8223 0.5022
vn -0.5022 -0.8223 -0.2676
vn -0.5022 -0.8223 0.2677
vn 0.2676 -0.8223 -0.5022
vn -0.2676 -0.8223 -0.5022
vn 0.5022 -0.8223 0.2677
vn -0.2676 -0.8223 0.5022
vn 0.5022 -0.8223 -0.2676
vn 0.1878 -0.9218 0.3391
vn -0.3391 -0.9218 -0.1878
vn -0.3391 -0.9218 0.1878
vn 0.1878 -0.9218 -0.3391
vn -0.1878 -0.9218 -0.3391
vn 0.3391 -0.9218 0.1878
vn -0.1878 -0.9218 0.3391
vn 0.3391 -0.9218 -0.1878
vn 0.1382 -0.9547 0.2636
vn -0.2636 -0.9547 -0.1382
vn -0.2636 -0.9547 0.1382
vn 0.1382 -0.9547 -0.2636
vn -0.1382 -0.9547 -0.2636
vn 0.2636 -0.9547 0.1382
vn -0.1382 -0.9547 0.2636
vn 0.2636 -0.9547 -0.1382
vn 0.1105 -0.9716 0.2091
vn -0.2091 -0.9716 -0.1105
vn -0.2091 -0.9716 0.1105
vn 0.1105 -0.9716 -0.2091
vn -0.1105 -0.9716 -0.2091
vn 0.2091 -0.9716 0.1105
vn -0.1105 -0.9716 0.2091
vn 0.2091 -0.9716 -0.1105
vn 0.0920 -0.9808 0.1722
vn -0.1722 -0.9808 -0.0920
vn -0.1722 -0.9808 0.0920
vn 0.0920 -0.9808 -0.1722
vn -0.0920 -0.9808 -0.1722
vn 0.1722 -0.9808 0.0920
vn -0.0920 -0.9808 0.1722
vn 0.1722 -0.9808 -0.0920
vn 0.0773 -0.9855 0.1511
vn -0.1511 -0.9855 -0.0773
vn -0.1511 -0.9855 0.0773
vn 0.0773 -0.9855 -0.1511
vn -0.0773 -0.9855 -0.1511
vn 0.1511 -0.9855 0.0773
vn -0.0773 -0.9855 0.1511
vn 0.1511 -0.9855 -0.0773
vn -0.1382 -0.9547 -0.2635
vn 0.1382 -0.9547 0.2635
vn 0.2635 -0.9547 0.1382
vn -0.2635 -0.9547 -0.1382
vn 0.1382 -0.9547 -0.2635
vn -0.2635 -0.9547 0.1382
vn 0.2635 -0.9547 -0.1382
vn -0.1382 -0.9547 0.2635
usemtl Material.008
s 1
f 1//1 2//1 3//1 4//1
f 4//2 3//2 5//2 6//2
f 6//3 5//3 7//3 8//3
f 8//4 7//4 9//4 10//4
f 10//5 9//5 11//5 12//5
f 12//6 11//6 13//6 14//6
f 3//7 2//7 15//7 13//7 11//7 9//7 7//7 5//7
f 16//8 15//8 2//8 1//8
f 14//9 13//9 15//9 16//9
f 1//10 4//10 6//10 8//10 10//10 12//10 14//10 16//10
usemtl Material.009
f 17//11 18//11 19//11 20//11
f 20//12 19//12 21//12 22//12
f 22//13 21//13 23//13 24//13
f 24//14 23//14 25//14 26//14
f 26//15 25//15 27//15 28//15
f 28//16 27//16 29//16 30//16
f 31//17 32//17 18//17 17//17
f 30//18 29//18 32//18 31//18
f 33//10 34//10 35//10 36//10 37//10 38//10 39//10 40//10
f 19//7 18//7 32//7 29//7 27//7 25//7 23//7 21//7
f 41//19 42//19 43//19 44//19
f 45//20 46//20 47//20 48//20
f 49//21 50//21 51//21 52//21
f 53//22 54//22 55//22 56//22
f 57//23 58//23 59//23 60//23
f 44//24 43//24 61//24 62//24
f 48//25 47//25 63//25 64//25
f 52//26 51//26 65//26 66//26
f 56//27 55//27 67//27 68//27
f 60//28 59//28 69//28 70//28
f 62//29 61//29 71//29 72//29
f 64//30 63//30 73//30 74//30
f 66//31 65//31 75//31 76//31
f 68//32 67//32 77//32 78//32
f 70//33 69//33 79//33 80//33
f 72//34 71//34 81//34 82//34
f 74//35 73//35 83//35 84//35
f 76//36 75//36 85//36 86//36
f 78//37 77//37 87//37 88//37
f 80//38 79//38 89//38 90//38
f 82//39 81//39 91//39 92//39
f 84//40 83//40 93//40 94//40
f 86//41 85//41 95//41 96//41
f 88//42 87//42 97//42 98//42
f 90//43 89//43 99//43 100//43
f 92//44 91//44 101//44 102//44
f 94//45 93//45 103//45 104//45
f 96//46 95//46 105//46 106//46
f 98//47 97//47 107//47 108//47
f 100//48 99//48 109//48 110//48
f 111//49 112//49 42//49 41//49
f 113//50 114//50 46//50 45//50
f 115//51 116//51 50//51 49//51
f 117//52 118//52 54//52 53//52
f 119//53 120//53 58//53 57//53
f 102//54 101//54 112//54 111//54
f 104//55 103//55 114//55 113//55
f 106//56 105//56 116//56 115//56
f 108//57 107//57 118//57 117//57
f 110//58 109//58 120//58 119//58
f 58//59 17//59 20//59 59//59
f 59//60 20//60 22//60 69//60
f 69//61 22//61 24//61 79//61
f 79//62 24//62 26//62 89//62
f 89//63 26//63 28//63 99//63
f 99//64 28//64 30//64 109//64
f 120//65 31//65 17//65 58//65
f 109//66 30//66 31//66 120//66
f 54//67 57//67 60//67 55//67
f 55//68 60//68 70//68 67//68
f 67//69 70//69 80//69 77//69
f 77//70 80//70 90//70 87//70
f 87//71 90//71 100//71 97//71
f 97//72 100//72 110//72 107//72
f 118//73 119//73 57//73 54//73
f 107//74 110//74 119//74 118//74
f 50//75 53//75 56//75 51//75
f 51//76 56//76 68//76 65//76
f 65//77 68//77 78//77 75//77
f 75//78 78//78 88//78 85//78
f 85//79 88//79 98//79 95//79
f 95//80 98//80 108//80 105//80
f 116//81 117//81 53//81 50//81
f 105//82 108//82 117//82 116//82
f 46//83 49//83 52//83 47//83
f 47//84 52//84 66//84 63//84
f 63//85 66//85 76//85 73//85
f 73//86 76//86 86//86 83//86
f 83//87 86//87 96//87 93//87
f 93//88 96//88 106//88 103//88
f 114//89 115//89 49//89 46//89
f 103//90 106//90 115//90 114//90
f 42//91 45//91 48//91 43//91
f 43//92 48//92 64//92 61//92
f 61//93 64//93 74//93 71//93
f 71//94 74//94 84//94 81//94
f 81//95 84//95 94//95 91//95
f 91//96 94//96 104//96 101//96
f 112//97 113//97 45//97 42//97
f 101//98 104//98 113//98 112//98
f 33//99 41//99 44//99 34//99
f 34//100 44//100 62//100 35//100
f 35//101 62//101 72//101 36//101
f 36//102 72//102 82//102 37//102
f 37//103 82//103 92//103 38//103
f 38//104 92//104 102//104 39//104
f 40//105 111//105 41//105 33//105
f 39//106 102//106 111//106 40//106
usemtl snow
f 121//102 122//102 123//102 124//102
f 125//99 126//99 127//99 128//99
f 129//97 130//97 131//97 132//97
f 133//95 134//95 135//95 136//95
f 137//93 138//93 139//93 140//93
f 132//91 131//91 141//91 142//91
f 143//101 144//101 122//101 121//101
f 145//89 146//89 147//89 148//89
f 149//105 150//105 126//105 125//105
f 124//103 123//103 151//103 152//103
f 153//87 154//87 155//87 156//87
f 148//83 147//83 157//83 158//83
f 159//107 160//107 161//107 162//107
f 163//108 164//108 165//108 166//108
f 167//71 168//71 169//71 170//71
f 171//59 172//59 173//59 174//59
f 175//61 176//61 177//61 178//61
f 179//63 180//63 181//63 182//63
f 183//65 184//65 172//65 171//65
f 185//67 186//67 187//67 188//67
f 150//49 129//49 132//49 126//49
f 146//51 189//51 163//51 147//51
f 190//53 183//53 171//53 186//53
f 191//55 192//55 145//55 130//55
f 193//57 194//57 195//57 196//57
f 123//39 133//39 136//39 151//39
f 154//41 159//41 162//41 155//41
f 168//43 179//43 182//43 169//43
f 135//45 156//45 192//45 191//45
f 161//47 170//47 194//47 193//47
f 144//29 137//29 140//29 122//29
f 197//31 198//31 199//31 200//31
f 201//33 175//33 178//33 202//33
f 139//35 203//35 153//35 134//35
f 204//37 205//37 167//37 160//37
f 126//19 132//19 142//19 127//19
f 147//21 163//21 166//21 157//21
f 186//23 171//23 174//23 187//23
f 141//25 158//25 206//25 138//25
f 165//27 188//27 207//27 208//27
f 156//88 155//88 209//88 192//88
f 158//84 157//84 197//84 206//84
f 162//109 161//109 193//109 210//109
f 166//110 165//110 208//110 198//110
f 170//72 169//72 211//72 194//72
f 172//11 212//11 213//11 173//11
f 176//13 214//13 215//13 177//13
f 180//15 216//15 217//15 181//15
f 184//17 218//17 212//17 172//17
f 125//10 128//10 143//10 121//10 124//10 152//10 219//10 149//10
f 205//70 202//70 168//70 167//70
f 188//68 187//68 201//68 207//68
f 211//58 220//58 183//58 190//58
f 169//48 182//48 220//48 211//48
f 202//38 178//38 179//38 168//38
f 187//28 174//28 175//28 201//28
f 207//69 201//69 202//69 205//69
f 213//7 212//7 218//7 221//7 217//7 216//7 215//7 214//7
f 194//74 211//74 190//74 195//74
f 220//66 222//66 184//66 183//66
f 209//56 210//56 189//56 146//56
f 155//46 162//46 210//46 209//46
f 200//36 199//36 159//36 154//36
f 157//26 166//26 198//26 197//26
f 195//73 190//73 186//73 185//73
f 222//18 221//18 218//18 184//18
f 199//111 204//111 160//111 159//111
f 182//64 181//64 222//64 220//64
f 223//54 224//54 129//54 150//54
f 151//44 136//44 224//44 223//44
f 122//34 140//34 133//34 123//34
f 127//24 142//24 137//24 144//24
f 198//112 208//112 204//112 199//112
f 181//16 217//16 221//16 222//16
f 210//113 193//113 196//113 189//113
f 178//62 177//62 180//62 179//62
f 196//52 195//52 185//52 164//52
f 160//42 167//42 170//42 161//42
f 208//32 207//32 205//32 204//32
f 164//22 185//22 188//22 165//22
f 189//114 196//114 164//114 163//114
f 177//14 215//14 216//14 180//14
f 203//86 200//86 154//86 153//86
f 174//60 173//60 176//60 175//60
f 130//50 145//50 148//50 131//50
f 134//40 153//40 156//40 135//40
f 138//30 206//30 203//30 139//30
f 131//20 148//20 158//20 141//20
f 206//85 197//85 200//85 203//85
f 173//12 213//12 214//12 176//12
f 219//106 223//106 150//106 149//106
f 128//100 127//100 144//100 143//100
f 224//98 191//98 130//98 129//98
f 136//96 135//96 191//96 224//96
f 140//94 139//94 134//94 133//94
f 142//92 141//92 138//92 137//92
f 152//104 151//104 223//104 219//104
f 192//90 209//90 146//90 145//90
