# This file uses centimeters as units for non-parametric coordinates.

mtllib tree_4.mtl
g default
v 0.090974 0.009761 0.050243
v 0.003950 0.009761 0.100487
v -0.083075 0.009761 0.050243
v -0.083075 0.009761 -0.050243
v 0.003950 0.009761 -0.100487
v 0.090974 0.009761 -0.050243
v 0.090974 0.695200 0.050243
v 0.003950 0.695200 0.100487
v -0.083075 0.695200 0.050243
v -0.083075 0.695200 -0.050243
v 0.003950 0.695200 -0.100487
v 0.090974 0.695200 -0.050243
v 0.877406 0.535322 0.504290
v 0.003950 0.535322 1.008580
v -0.869507 0.535322 0.504290
v -0.869507 0.535322 -0.504290
v 0.003950 0.535322 -1.008580
v 0.877406 0.535322 -0.504290
v 0.351624 1.224634 0.212041
v -0.015268 1.241188 0.424082
v -0.382161 1.257742 0.212041
v -0.382161 1.257742 -0.212041
v -0.015268 1.241188 -0.424082
v 0.351624 1.224634 -0.212041
v 0.750379 0.935084 0.449563
v -0.027496 0.970181 0.899125
v -0.805370 1.005278 0.449563
v -0.805370 1.005278 -0.449563
v -0.027496 0.970181 -0.899125
v 0.750379 0.935084 -0.449563
v 0.278425 1.896994 0.152325
v 0.014858 1.908887 0.304651
v -0.248709 1.920778 0.152325
v -0.248709 1.920778 -0.152325
v 0.014858 1.908887 -0.304651
v 0.278425 1.896994 -0.152325
v 0.565645 1.634616 0.330234
v -0.004057 1.685635 0.660467
v -0.573759 1.736654 0.330234
v -0.573759 1.736654 -0.330234
v -0.004057 1.685635 -0.660467
v 0.565645 1.634616 -0.330234
v 0.120677 3.078464 0.000000
vt 0.356470 0.852564
vt 0.385717 0.852564
vt 0.385717 0.881811
vt 0.356470 0.881811
vt 0.356470 0.852564
vt 0.385717 0.852564
vt 0.385717 0.881811
vt 0.356470 0.881811
vt 0.356470 0.852564
vt 0.385717 0.852564
vt 0.385717 0.881811
vt 0.356470 0.881811
vt 0.348658 0.350611
vt 0.377905 0.350611
vt 0.377905 0.379858
vt 0.348658 0.379858
vt 0.371094 0.881811
vt 0.383758 0.874499
vt 0.383758 0.859876
vt 0.371094 0.852564
vt 0.358429 0.859876
vt 0.358429 0.874499
vt 0.356470 0.852564
vt 0.385717 0.852564
vt 0.385717 0.881811
vt 0.356470 0.881811
vt 0.356470 0.852564
vt 0.385717 0.852564
vt 0.385717 0.881811
vt 0.356470 0.881811
vt 0.356470 0.852564
vt 0.385717 0.852564
vt 0.385717 0.881811
vt 0.356470 0.881811
vt 0.348658 0.350611
vt 0.377905 0.350611
vt 0.377905 0.379858
vt 0.348658 0.379858
vt 0.348658 0.350611
vt 0.377905 0.350611
vt 0.377905 0.379858
vt 0.348658 0.379858
vt 0.348658 0.350611
vt 0.377905 0.350611
vt 0.377905 0.379858
vt 0.348658 0.379858
vt 0.348658 0.350611
vt 0.377905 0.350611
vt 0.377905 0.379858
vt 0.348658 0.379858
vt 0.348658 0.350611
vt 0.377905 0.350611
vt 0.377905 0.379858
vt 0.348658 0.379858
vt 0.348658 0.350611
vt 0.377905 0.350611
vt 0.377905 0.379858
vt 0.348658 0.379858
vt 0.348658 0.350611
vt 0.377905 0.350611
vt 0.377905 0.379858
vt 0.348658 0.379858
vt 0.348658 0.350611
vt 0.377905 0.350611
vt 0.377905 0.379858
vt 0.348658 0.379858
vt 0.348658 0.350611
vt 0.377905 0.350611
vt 0.377905 0.379858
vt 0.348658 0.379858
vt 0.348658 0.350611
vt 0.377905 0.350611
vt 0.377905 0.379858
vt 0.348658 0.379858
vt 0.348658 0.350611
vt 0.377905 0.350611
vt 0.377905 0.379858
vt 0.348658 0.379858
vt 0.348658 0.350611
vt 0.377905 0.350611
vt 0.377905 0.379858
vt 0.348658 0.379858
vt 0.348658 0.350611
vt 0.377905 0.350611
vt 0.377905 0.379858
vt 0.348658 0.379858
vt 0.348658 0.350611
vt 0.377905 0.350611
vt 0.377905 0.379858
vt 0.348658 0.379858
vt 0.348658 0.350611
vt 0.377905 0.350611
vt 0.377905 0.379858
vt 0.348658 0.379858
vt 0.348658 0.350611
vt 0.377905 0.350611
vt 0.377905 0.379858
vt 0.348658 0.379858
vt 0.348658 0.350611
vt 0.377905 0.350611
vt 0.377905 0.379858
vt 0.348658 0.379858
vt 0.348658 0.350611
vt 0.377905 0.350611
vt 0.377905 0.379858
vt 0.348658 0.379858
vt 0.348658 0.350611
vt 0.377905 0.350611
vt 0.377905 0.379858
vt 0.348658 0.379858
vt 0.348658 0.350611
vt 0.377905 0.350611
vt 0.377905 0.379858
vt 0.348658 0.379858
vt 0.348658 0.350611
vt 0.377905 0.350611
vt 0.377905 0.379858
vt 0.348658 0.379858
vt 0.348658 0.350611
vt 0.377905 0.350611
vt 0.377905 0.379858
vt 0.348658 0.379858
vt 0.348658 0.350611
vt 0.377905 0.350611
vt 0.377905 0.379858
vt 0.348658 0.379858
vt 0.348658 0.350611
vt 0.377905 0.350611
vt 0.377905 0.379858
vt 0.348658 0.379858
vt 0.348658 0.350611
vt 0.377905 0.350611
vt 0.377905 0.379858
vt 0.348658 0.379858
vt 0.348658 0.350611
vt 0.377905 0.350611
vt 0.377905 0.379858
vt 0.348658 0.379858
vt 0.348658 0.350611
vt 0.377905 0.350611
vt 0.377905 0.379858
vt 0.348658 0.379858
vt 0.348658 0.350611
vt 0.377905 0.350611
vt 0.377905 0.379858
vt 0.348658 0.379858
vt 0.348658 0.350611
vt 0.377905 0.350611
vt 0.377905 0.379858
vt 0.348658 0.379858
vt 0.348658 0.350611
vt 0.377905 0.350611
vt 0.377905 0.379858
vt 0.348658 0.350611
vt 0.377905 0.350611
vt 0.377905 0.379858
vt 0.348658 0.350611
vt 0.377905 0.350611
vt 0.377905 0.379858
vt 0.348658 0.350611
vt 0.377905 0.350611
vt 0.377905 0.379858
vt 0.348658 0.350611
vt 0.377905 0.350611
vt 0.377905 0.379858
vt 0.348658 0.350611
vt 0.377905 0.350611
vt 0.377905 0.379858
vn -0.500000 -0.000000 0.866026
vn -0.500000 -0.000000 0.866026
vn -0.500000 -0.000000 0.866026
vn -0.500000 -0.000000 0.866026
vn -1.000000 0.000000 0.000000
vn -1.000000 0.000000 0.000000
vn -1.000000 0.000000 0.000000
vn -1.000000 0.000000 0.000000
vn -0.500000 0.000000 -0.866026
vn -0.500000 0.000000 -0.866026
vn -0.500000 0.000000 -0.866026
vn -0.500000 0.000000 -0.866026
vn 0.099610 -0.979955 0.172530
vn 0.099610 -0.979955 0.172530
vn 0.099610 -0.979955 0.172530
vn 0.099610 -0.979955 0.172530
vn 0.000000 -1.000000 -0.000000
vn 0.000000 -1.000000 -0.000000
vn 0.000000 -1.000000 -0.000000
vn 0.000000 -1.000000 -0.000000
vn 0.000000 -1.000000 -0.000000
vn 0.000000 -1.000000 -0.000000
vn 0.500000 -0.000000 0.866026
vn 0.500000 -0.000000 0.866026
vn 0.500000 -0.000000 0.866026
vn 0.500000 -0.000000 0.866026
vn 1.000000 0.000000 0.000000
vn 1.000000 0.000000 0.000000
vn 1.000000 0.000000 0.000000
vn 1.000000 0.000000 0.000000
vn 0.500000 0.000000 -0.866026
vn 0.500000 0.000000 -0.866026
vn 0.500000 0.000000 -0.866026
vn 0.500000 0.000000 -0.866026
vn -0.404818 0.571060 -0.714152
vn -0.404818 0.571060 -0.714152
vn -0.404818 0.571060 -0.714152
vn -0.404818 0.571060 -0.714152
vn -0.099610 -0.979955 0.172530
vn -0.099610 -0.979955 0.172530
vn -0.099610 -0.979955 0.172530
vn -0.099610 -0.979955 0.172530
vn -0.199220 -0.979955 -0.000000
vn -0.199220 -0.979955 -0.000000
vn -0.199220 -0.979955 -0.000000
vn -0.199220 -0.979955 -0.000000
vn -0.099610 -0.979955 -0.172530
vn -0.099610 -0.979955 -0.172530
vn -0.099610 -0.979955 -0.172530
vn -0.099610 -0.979955 -0.172530
vn 0.099610 -0.979955 -0.172530
vn 0.099610 -0.979955 -0.172530
vn 0.099610 -0.979955 -0.172530
vn 0.099610 -0.979955 -0.172530
vn 0.199220 -0.979955 -0.000000
vn 0.199220 -0.979955 -0.000000
vn 0.199220 -0.979955 -0.000000
vn 0.199220 -0.979955 -0.000000
vn 0.237342 -0.846393 0.476748
vn 0.237342 -0.846393 0.476748
vn 0.237342 -0.846393 0.476748
vn 0.237342 -0.846393 0.476748
vn 0.408003 0.594697 -0.692726
vn 0.408003 0.594697 -0.692726
vn 0.408003 0.594697 -0.692726
vn 0.408003 0.594697 -0.692726
vn 0.795103 0.606475 0.000000
vn 0.795103 0.606475 0.000000
vn 0.795103 0.606475 0.000000
vn 0.795103 0.606475 0.000000
vn 0.408003 0.594696 0.692726
vn 0.408003 0.594696 0.692726
vn 0.408003 0.594696 0.692726
vn 0.408003 0.594696 0.692726
vn -0.404818 0.571060 0.714152
vn -0.404818 0.571060 0.714152
vn -0.404818 0.571060 0.714152
vn -0.404818 0.571060 0.714152
vn -0.829002 0.559246 0.000000
vn -0.829002 0.559246 0.000000
vn -0.829002 0.559246 0.000000
vn -0.829002 0.559246 0.000000
vn -0.416394 0.499774 -0.759501
vn -0.416394 0.499774 -0.759501
vn -0.416394 0.499774 -0.759501
vn -0.416394 0.499774 -0.759501
vn -0.312599 -0.821580 0.476748
vn -0.312599 -0.821580 0.476748
vn -0.312599 -0.821580 0.476748
vn -0.312599 -0.821580 0.476748
vn -0.587570 -0.809173 -0.000000
vn -0.587570 -0.809173 -0.000000
vn -0.587570 -0.809173 -0.000000
vn -0.587570 -0.809173 -0.000000
vn -0.312599 -0.821580 -0.476748
vn -0.312599 -0.821580 -0.476748
vn -0.312599 -0.821580 -0.476748
vn -0.312599 -0.821580 -0.476748
vn 0.237342 -0.846393 -0.476748
vn 0.237342 -0.846393 -0.476748
vn 0.237342 -0.846393 -0.476748
vn 0.237342 -0.846393 -0.476748
vn 0.512313 -0.858799 -0.000000
vn 0.512313 -0.858799 -0.000000
vn 0.512313 -0.858799 -0.000000
vn 0.512313 -0.858799 -0.000000
vn 0.223918 -0.838938 0.496028
vn 0.223918 -0.838938 0.496028
vn 0.223918 -0.838938 0.496028
vn 0.223918 -0.838938 0.496028
vn 0.459710 0.460244 -0.759501
vn 0.459710 0.460244 -0.759501
vn 0.459710 0.460244 -0.759501
vn 0.459710 0.460244 -0.759501
vn 0.897762 0.440480 0.000000
vn 0.897762 0.440480 0.000000
vn 0.897762 0.440480 0.000000
vn 0.897762 0.440480 0.000000
vn 0.459710 0.460244 0.759501
vn 0.459710 0.460244 0.759501
vn 0.459710 0.460244 0.759501
vn 0.459710 0.460244 0.759501
vn -0.416395 0.499774 0.759501
vn -0.416395 0.499774 0.759501
vn -0.416395 0.499774 0.759501
vn -0.416395 0.499774 0.759501
vn -0.854447 0.519538 0.000000
vn -0.854447 0.519538 0.000000
vn -0.854447 0.519538 0.000000
vn -0.854447 0.519538 0.000000
vn -0.360653 -0.772949 0.521996
vn -0.360653 -0.772949 0.521996
vn -0.360653 -0.772949 0.521996
vn -0.360653 -0.772949 0.521996
vn -0.674457 -0.738314 -0.000000
vn -0.674457 -0.738314 -0.000000
vn -0.674457 -0.738314 -0.000000
vn -0.674457 -0.738314 -0.000000
vn -0.360653 -0.772949 -0.521996
vn -0.360653 -0.772949 -0.521996
vn -0.360653 -0.772949 -0.521996
vn -0.360653 -0.772949 -0.521996
vn 0.223918 -0.838938 -0.496029
vn 0.223918 -0.838938 -0.496029
vn 0.223918 -0.838938 -0.496029
vn 0.223918 -0.838938 -0.496029
vn 0.492869 -0.870103 -0.000000
vn 0.492869 -0.870103 -0.000000
vn 0.492869 -0.870103 -0.000000
vn 0.492869 -0.870103 -0.000000
vn -0.427171 0.418350 -0.801566
vn -0.427171 0.418350 -0.801566
vn -0.427171 0.418350 -0.801566
vn 0.494708 0.335792 -0.801566
vn 0.494708 0.335792 -0.801566
vn 0.494708 0.335792 -0.801566
vn 0.955647 0.294513 0.000000
vn 0.955647 0.294513 0.000000
vn 0.955647 0.294513 0.000000
vn 0.494708 0.335792 0.801566
vn 0.494708 0.335792 0.801566
vn 0.494708 0.335792 0.801566
vn -0.427171 0.418350 0.801566
vn -0.427171 0.418350 0.801566
vn -0.427171 0.418350 0.801566
vn -0.888111 0.459630 0.000000
vn -0.888111 0.459630 0.000000
vn -0.888111 0.459630 0.000000
s off
g Tree_Type1_03_mesh
usemtl blinn3SG
f 2/1/1 8/2/2 9/3/3 3/4/4
f 3/5/5 9/6/6 10/7/7 4/8/8
f 4/9/9 10/10/10 11/11/11 5/12/12
f 10/13/13 16/14/14 17/15/15 11/16/16
f 4/17/17 5/18/18 6/19/19 1/20/20 2/21/21 3/22/22
f 1/23/23 7/24/24 8/25/25 2/26/26
f 6/27/27 12/28/28 7/29/29 1/30/30
f 5/31/31 11/32/32 12/33/33 6/34/34
f 16/35/35 22/36/36 23/37/37 17/38/38
f 11/39/39 17/40/40 18/41/41 12/42/42
f 12/43/43 18/44/44 13/45/45 7/46/46
f 7/47/47 13/48/48 14/49/49 8/50/50
f 8/51/51 14/52/52 15/53/53 9/54/54
f 9/55/55 15/56/56 16/57/57 10/58/58
f 22/59/59 28/60/60 29/61/61 23/62/62
f 17/63/63 23/64/64 24/65/65 18/66/66
f 18/67/67 24/68/68 19/69/69 13/70/70
f 13/71/71 19/72/72 20/73/73 14/74/74
f 14/75/75 20/76/76 21/77/77 15/78/78
f 15/79/79 21/80/80 22/81/81 16/82/82
f 28/83/83 34/84/84 35/85/85 29/86/86
f 23/87/87 29/88/88 30/89/89 24/90/90
f 24/91/91 30/92/92 25/93/93 19/94/94
f 19/95/95 25/96/96 26/97/97 20/98/98
f 20/99/99 26/100/100 27/101/101 21/102/102
f 21/103/103 27/104/104 28/105/105 22/106/106
f 34/107/107 40/108/108 41/109/109 35/110/110
f 29/111/111 35/112/112 36/113/113 30/114/114
f 30/115/115 36/116/116 31/117/117 25/118/118
f 25/119/119 31/120/120 32/121/121 26/122/122
f 26/123/123 32/124/124 33/125/125 27/126/126
f 27/127/127 33/128/128 34/129/129 28/130/130
f 35/131/131 41/132/132 42/133/133 36/134/134
f 36/135/135 42/136/136 37/137/137 31/138/138
f 31/139/139 37/140/140 38/141/141 32/142/142
f 32/143/143 38/144/144 39/145/145 33/146/146
f 33/147/147 39/148/148 40/149/149 34/150/150
f 40/151/151 43/152/152 41/153/153
f 41/154/154 43/155/155 42/156/156
f 42/157/157 43/158/158 37/159/159
f 37/160/160 43/161/161 38/162/162
f 38/163/163 43/164/164 39/165/165
f 39/166/166 43/167/167 40/168/168
